<?xml version="1.0" standalone="no"?>
<!DOCTYPE svg PUBLIC "-//W3C//DTD SVG 1.1//EN" "http://www.w3.org/Graphics/SVG/1.1/DTD/svg11.dtd" >
<svg xmlns="http://www.w3.org/2000/svg" xmlns:xlink="http://www.w3.org/1999/xlink" version="1.1">
<metadata></metadata>
<defs>
<font id="fzjingleis-r-gbregular" horiz-adv-x="2048" vert-adv-y="2048" >
<font-face units-per-em="2048" ascent="1632" descent="-416" />
<missing-glyph horiz-adv-x="568" />
<glyph horiz-adv-x="0" vert-adv-y="0" />
<glyph horiz-adv-x="682" />
<glyph unicode=" "  horiz-adv-x="568" />
<glyph unicode="&#x09;" horiz-adv-x="568" />
<glyph unicode="&#xa0;" horiz-adv-x="568" />
<glyph unicode="!" horiz-adv-x="696" d="M104 176q0 32 40 40q40 -8 48 -72q-8 -32 -24 -32q-64 0 -64 64zM472 1224h32h16q0 -128 -16 -168l-104 -400q-96 -264 -136 -280q-16 0 -16 16v16q32 88 56 168q32 64 64 208q24 80 32 112q-8 32 24 120q16 48 16 64q8 144 32 144z" />
<glyph unicode="&#x22;" horiz-adv-x="648" d="M360 1008q0 32 32 104q8 24 16 32q24 64 24 216q0 16 24 16q32 0 40 -24v-56q0 -152 -48 -232q-8 -16 -32 -24q-24 -24 -32 -48l-16 8q-8 0 -8 8zM160 1320h16q16 8 24 -8q72 -88 72 -160q0 -56 -32 -56q-8 0 -24 8q0 8 -8 24q0 32 -8 40q-8 16 -16 48q-24 64 -24 104z " />
<glyph unicode="#" horiz-adv-x="976" d="M520 160l40 200q-8 40 8 120q16 64 16 96q-32 0 -112 -24q-40 -16 -56 -16l-16 -8q0 -120 -8 -240l-8 -16t-16 -16q-48 0 -48 40q0 8 8 40v32v72v72q0 8 -24 8q-16 0 -48 -8h-32q-48 0 -88 16q-24 24 -24 32q0 32 40 32h64q40 -8 56 -8h32l16 8v16q0 48 -24 128h-48 q-16 0 -56 -8q-32 -8 -56 -8q-40 8 -48 40q0 24 32 24h16h8q24 16 104 16h24q24 0 16 8q0 40 -16 104q-24 72 -24 104v24q24 8 40 8q48 0 64 -160q0 -80 16 -80h48h16q192 -8 184 48t-16 216q-8 48 -8 56t8 32v32q-8 16 48 24q16 0 16 -24v-64q-8 -200 16 -296h16t56 8 q24 16 40 16q24 8 24 40q8 32 24 32h8q24 -16 40 -40q8 0 8 -8q0 -64 -168 -104q-40 -8 -48 -8q-16 -16 -8 -72v-8q96 8 96 32q0 8 -16 8t-16 16q8 32 32 32q40 0 96 -40v-16q0 -48 -112 -80q-96 -32 -96 -64l-40 -208q-24 -112 -16 -208q-16 0 -24 -16t-24 -16 q-24 8 -32 32zM608 752l-40 8q-96 -8 -192 -24v-40q0 -104 32 -104q128 24 192 56v32q8 48 8 56v16z" />
<glyph unicode="$" horiz-adv-x="784" d="M560 816l48 80q-40 40 -88 56q-32 0 -32 -88q-8 -56 -16 -64q-8 -72 -16 -104q0 -16 96 -72q144 -80 144 -112q0 -48 -64 -96q-120 -64 -240 -80q-24 -24 -56 -184q-32 -152 -56 -152q-40 0 -40 48l8 16q0 8 8 32q24 152 56 224h-96q-104 8 -112 64q56 208 144 240 q0 -24 -24 -40q-8 -8 -8 -16q-40 -80 -48 -88v-24q0 -72 16 -72h40q64 0 104 16q56 128 56 240q0 32 -72 88q-128 88 -128 184q0 40 16 48q8 8 72 40q16 8 24 8t48 8q72 0 96 16q24 112 8 224q16 24 32 16q48 0 48 -64q0 -24 -8 -80q-16 -64 -16 -96q0 -8 64 -32 q120 -56 120 -88q-16 -24 -16 -48q-40 -32 -72 -72h-16q-8 0 -16 8h-24q8 24 16 16zM616 504v8q-72 64 -152 96q-24 -8 -40 -96q0 -16 -8 -40q-8 -16 -8 -24q-8 -24 -8 -32t16 -8q40 16 72 24q8 8 64 32q48 24 56 24q8 8 8 16zM392 736l8 8q16 56 16 72q8 48 8 112v32l-8 8 h-16q-144 -16 -152 -80q24 -72 144 -152z" />
<glyph unicode="%" horiz-adv-x="1288" d="M120 96l16 8v-48q32 0 176 200l8 8l240 360q96 152 144 224q24 40 48 72q0 8 16 16q32 48 48 88q112 152 120 208q-96 -16 -208 -56q-16 0 -16 -8q56 -40 48 -112l-16 -24t-16 -32q-80 -120 -248 -120q-128 0 -240 112q-16 16 -16 48q0 40 88 104l16 16q48 32 96 72 q8 40 16 40h88q16 -8 48 -16t48 -16h48q144 0 344 88h16q32 0 32 -32q0 -56 -88 -160q-40 -32 -48 -48q-64 -120 -88 -144l-272 -408q-8 -8 -40 -64q-16 -32 -24 -40q-8 -16 -32 -40q-24 -32 -32 -48q-24 -32 -64 -96q-8 -24 -16 -32l-24 -24q-48 -64 -64 -104l-96 -88h-24 q-56 0 -56 24v8t8 32q8 32 16 32zM1008 728q176 -16 192 -168q-40 -200 -328 -384q-24 -8 -56 -8h-16q-128 8 -136 136q0 8 8 24q8 40 32 104q8 8 -8 32q-8 16 -8 24q0 112 184 200l48 24q72 8 88 16zM896 616v-40q-152 -136 -152 -272v-40q24 -40 56 -40q272 88 344 344 q-32 88 -120 96q-72 -16 -128 -48zM296 1032q64 -88 208 -88q176 24 192 136v16q-40 96 -184 88h-48q-136 -96 -168 -152z" />
<glyph unicode="&#x26;" horiz-adv-x="968" d="M456 688v-24l16 -48q16 -56 24 -72q56 -208 88 -216q8 0 16 8l56 112q0 56 24 56t40 -8v-24q0 -56 -80 -184q-8 -16 -8 -24l-8 -8v-24q0 -24 24 -56q32 -32 32 -56h40q8 -8 16 -48q48 -56 88 -120v-8q-8 -48 -32 -56h-8q-48 48 -56 80q-48 40 -64 72q-8 8 -48 72 q-32 72 -40 72q-32 0 -104 -48q-96 -24 -224 -32q-104 8 -120 184v24q-8 160 56 232q8 16 32 40l48 72q48 32 96 56q8 0 8 16q0 40 -40 136q-16 56 -24 80v48l-8 48q0 8 -8 16v64q-24 208 152 192q64 8 128 -16q128 -80 144 -264q-8 -176 -256 -344zM480 384l-40 136 q-16 8 -24 56q-16 56 -40 56q-16 0 -56 -24q-8 -8 -16 -8q-120 -96 -112 -304v-72q8 -32 32 -56h40q256 24 272 96q-16 72 -56 120zM360 1000l72 -240q64 16 144 120q48 96 56 104q0 8 8 16q8 16 8 48v8q-32 216 -192 208q-104 8 -96 -120v-48v-96z" />
<glyph unicode="'" horiz-adv-x="576" d="M328 1368l-24 -144q0 -16 -24 -24q-16 0 -16 32v8q0 40 8 112v112q8 8 16 8q56 -8 56 -64q8 -16 -16 -40z" />
<glyph unicode="(" horiz-adv-x="896" d="M304 696v-96q16 -24 16 -48l104 -144q56 -56 72 -64q40 -32 120 -64l16 -8q8 8 24 16q32 -8 40 -24q-8 -48 -64 -56q-16 0 -48 16q-8 8 -16 8q-184 96 -280 256q-8 16 -16 40q-48 72 -48 136t40 120q0 8 16 24q64 104 80 112q24 40 144 160q16 8 40 24h16q56 8 48 -56 v-16q-8 0 -16 -8q-8 0 -8 16q0 8 -8 8q-64 -16 -256 -280q0 -8 -8 -32q0 -32 -8 -40z" />
<glyph unicode=")" horiz-adv-x="856" d="M376 952l-128 72q-16 0 -48 16q16 56 72 64q40 -48 120 -88q32 -24 48 -32t64 -40q40 -24 64 -40q16 0 16 -16q80 -64 80 -176q-96 -448 -408 -520q-104 0 -104 56q8 32 24 32q24 -32 64 -32q184 24 328 320q32 64 24 160v56q-48 80 -104 104q-16 8 -56 32t-56 32z" />
<glyph unicode="*" horiz-adv-x="1064" d="M144 592l-24 32q0 8 8 8l8 16h16q16 8 40 32q56 40 96 56q16 8 64 24q96 48 136 80l-8 16q-8 8 -16 8q-16 8 -56 32q-72 32 -112 64q-16 16 -24 16l-8 8h-8l-8 8q-40 32 -40 48q16 24 48 16q8 0 16 -8l8 -8q0 -8 16 -16h24t8 -16q48 -64 168 -104q8 0 8 24q8 32 8 112 q-8 72 0 112l-8 8q8 40 56 32q8 0 32 -8q-8 -16 -8 -24q0 -24 -16 -64q-8 -24 -8 -32q16 -32 16 -40q-8 -8 -8 -96q0 -24 8 -24q56 24 128 96q40 32 64 48l16 8t24 16t8 16q8 16 48 8h8q24 8 40 -16q0 -8 -8 -16q0 -16 -8 -24q-16 0 -80 -32q-32 -16 -96 -64l-16 -16 q-104 -64 -112 -88q184 -120 208 -144l16 -8q96 -72 88 -88q0 -8 -8 -24v-8h-16q-8 -8 -16 -8l-32 32l-8 8t-32 24q-176 152 -216 152q-16 -72 0 -104v-32q-8 -56 0 -88v-8v-48q-8 -32 -16 -48q-8 -8 -32 -8l-8 8q-16 0 -24 16q8 96 8 184q8 24 0 72v64q-16 8 -120 -56 l-16 -8q-8 0 -40 -24l-48 -24q-48 -24 -64 -40l-8 -8q-32 -40 -56 -32h-8z" />
<glyph unicode="+" horiz-adv-x="984" d="M520 968l-8 8q0 40 -24 112q-24 64 -24 104q56 0 72 -24q40 -40 40 -184q8 -16 8 -192v-56l8 -8l264 40q16 8 32 8t16 -32q-8 -48 -32 -56h-112q-8 -16 -104 -16q-48 -8 -56 -8q-8 -8 -8 -16q-8 -16 -8 -24q0 -32 -8 -88q-16 -176 -16 -264v-56q8 -48 8 -72 q0 -48 -40 -48t-40 96q0 72 16 208q16 144 16 208v48q-16 8 -32 8q-48 0 -144 -8q-96 -16 -152 -16q-112 0 -112 48v8q-8 16 0 16q216 -8 424 8l8 8q16 8 16 16v8q-8 8 -8 48v168z" />
<glyph unicode="," horiz-adv-x="520" d="M272 160v8q0 16 -8 40t-8 32q0 16 8 16h48q24 0 32 -88q0 -24 -16 -40q-72 -144 -200 -168q-16 0 -16 8q0 16 88 88l8 8t32 48q32 40 32 48z" />
<glyph unicode="-" horiz-adv-x="920" d="M144 696h48q16 -32 104 -32h32l392 64q0 8 32 8t80 -8q8 -8 8 -24q0 -8 -32 -40q-80 0 -168 -8q-48 -8 -160 -24l-16 -8l-32 -8q-88 -16 -112 -16q-40 -8 -56 -8q-8 0 -40 8h-24q-72 16 -72 64q0 32 16 32z" />
<glyph unicode="." horiz-adv-x="488" d="M160 96q8 80 56 88q64 -16 88 -80q-8 -56 -48 -56q-88 8 -96 48z" />
<glyph unicode="/" horiz-adv-x="800" d="M104 144q0 40 48 128l8 8q56 96 144 256h8l144 240q8 0 8 8q128 216 136 344q8 8 8 16q8 8 24 8q64 0 64 -72q0 -40 -64 -128q-40 -56 -48 -80q-16 -24 -48 -80q-176 -272 -248 -424q-24 -48 -64 -144q-24 -48 -32 -72q-16 -24 -56 -48q-24 8 -32 40z" />
<glyph unicode="0" horiz-adv-x="800" d="M736 648l-88 -160q-72 -120 -272 -136q-144 -8 -288 160q-16 24 -16 88q0 96 40 144q8 8 40 48q96 104 112 112q16 32 16 48q24 24 72 48h24q304 -72 368 -288q0 -16 -8 -40v-24zM280 840l-112 -120q-24 -24 -24 -120q16 -176 248 -192q224 32 264 280q-40 192 -248 240 q-64 -8 -72 -96q-8 -8 -32 -8q-8 0 -24 16z" />
<glyph unicode="1" horiz-adv-x="456" d="M72 352q0 16 8 32q24 56 80 160q120 200 136 320v24v32q8 40 8 48q8 8 24 8q64 0 64 -40q-40 -144 -80 -216q-16 -56 -72 -160q-40 -80 -56 -120q-8 -40 -16 -48l-8 -24q-16 -24 -16 -32q-16 8 -32 -16q0 -16 -8 -16q-32 0 -32 48z" />
<glyph unicode="2" horiz-adv-x="816" d="M64 520v8q0 16 16 24l8 8q64 -24 96 -24h16l192 88q8 8 24 8q8 8 16 8q144 104 152 192q0 56 -48 56h-176q-16 0 -40 -16q-24 -8 -32 -8q-48 16 -56 48q8 40 168 48h64q184 8 184 -104q-8 -208 -344 -336q136 -88 352 -104q40 0 48 8q0 8 16 8q48 0 56 -32 q-8 -48 -40 -56q-40 0 -120 16q-48 16 -80 16q-200 48 -160 40l-24 16q-24 8 -32 8q-16 8 -72 8q-184 16 -184 72z" />
<glyph unicode="3" horiz-adv-x="648" d="M320 440h24v-24q-24 -32 -40 -40q0 -8 -8 -8l8 -8q16 0 16 8q184 112 184 200q-8 88 -144 104q-64 -8 -176 -64q-64 -40 -96 -48l-8 -8q-24 8 -32 48q0 16 32 32l24 24q24 16 88 40q96 40 136 72q32 32 104 152q0 24 -16 24h-32q-56 8 -64 8h-24q-112 16 -112 64 q-8 40 24 32q16 0 48 -8q16 -16 32 -16q48 -16 176 -16q24 -8 32 -32v-32q0 -72 -104 -200q8 -8 24 -8q8 -8 16 -8q128 -48 152 -160q-64 -184 -256 -280q-72 -48 -112 -48v8l-40 32v8q24 48 80 104q16 16 64 48z" />
<glyph unicode="4" horiz-adv-x="784" d="M352 544h-160q-120 16 -128 88l8 16q32 24 48 32l248 232q8 8 16 24q24 40 56 40q40 0 40 -32q0 -56 -120 -128l-200 -184v-8q40 -8 48 -16q8 8 32 0h16q16 0 80 8t72 8t24 8q32 0 40 16q24 16 48 64q8 16 8 24q8 24 24 64q40 120 48 192q8 40 40 40q48 -8 56 -56 q0 -64 -64 -176q-56 -88 -64 -136h8q56 8 56 40q-16 8 -16 16v8q0 16 24 16q48 -16 72 -72q-16 -40 -32 -56l-136 -32q-24 -24 -32 -40q-40 -40 -64 -104q-8 -8 -8 -40q-24 -112 -72 -112q-24 8 -32 32q0 40 48 120q40 72 40 112h-24q-24 8 -48 -8z" />
<glyph unicode="5" horiz-adv-x="768" d="M80 352v-8v-8q24 -48 48 -56q40 -24 80 -8h24q240 64 240 304q-24 120 -152 96q-32 0 -80 -24q-16 -40 -40 -56q-24 0 -48 40q-8 32 24 64q0 16 8 88v56v64q-16 160 24 168q24 0 32 -16q8 -40 64 -40q48 8 176 16q72 8 96 16l88 16q16 8 32 8q16 8 24 8q32 8 32 -16 q16 -24 -24 -48l-80 -16l-40 -16q-48 -8 -152 -8q-128 -8 -200 -24q-8 -104 -8 -216q0 -8 64 -8q104 8 136 -8q72 -40 96 -136v-48q-8 -32 -8 -48q-24 -96 -80 -168q-16 -8 -40 -32q-72 -72 -152 -80q-168 -8 -200 96q0 40 8 48q0 8 8 0z" />
<glyph unicode="6" horiz-adv-x="816" d="M136 376h-8q-24 0 -56 -40q-24 -40 -40 -40t-16 8q0 56 72 128l32 32q8 16 8 24q0 16 8 40q16 80 48 128q0 8 32 56q56 96 64 112q16 8 48 64q8 8 40 48q96 128 152 128q32 0 32 -24t-64 -72q-40 -24 -48 -40q-232 -272 -240 -400v-8q24 0 24 8q24 8 80 32q176 72 288 72 q184 -8 192 -144q0 -32 -32 -56q-232 -200 -384 -200q-176 0 -232 144zM200 432q8 -144 168 -152q264 64 336 208q0 80 -112 80q-120 0 -352 -112q-16 -8 -24 -8z" />
<glyph unicode="7" horiz-adv-x="808" d="M432 536l224 408v16q-40 0 -128 -8q-80 -8 -128 -8q-32 0 -96 8h-104h-56q-16 0 -16 -8q0 -32 16 -80q8 -48 8 -72v-8q8 -64 -32 -64q-24 0 -24 24v32q8 16 8 48l-8 8l-56 136q-16 16 -16 40t8 24h32h32q160 -24 328 -32q104 16 296 32h16q48 0 48 -24q0 -16 -120 -192 q-88 -136 -96 -152q-8 -8 -24 -40q-64 -136 -72 -152q0 -24 -16 -72q-16 -24 -16 -32t-8 -24q-8 -104 -56 -104q-24 0 -32 40q0 56 48 152q32 72 40 104z" />
<glyph unicode="8" horiz-adv-x="816" d="M248 712q-152 40 -152 128q64 88 328 176q168 -16 168 -136q0 -16 -16 -40t-16 -32v-8q184 -64 232 -240q0 -144 -208 -224q-24 -8 -40 -16q-16 0 -64 -16q-32 -16 -40 -16t-80 -8q-64 -16 -80 -16h-32q-224 24 -216 192q0 56 80 120l24 24q8 0 72 64l16 16q24 16 24 32z M96 408q0 -64 152 -88h16t32 8h24q200 16 352 120l24 24l16 16q0 8 8 32v32q8 152 -200 160q-32 8 -96 -16l-16 -8t-88 -48q-56 -24 -64 -32t-72 -56q-56 -56 -72 -64q-8 -56 -16 -72v-8zM432 960l-144 -56q-16 -16 -64 -56q-32 -24 -40 -32q16 -40 120 -48q16 -8 24 -8 q184 24 208 128q-24 80 -104 72z" />
<glyph unicode="9" horiz-adv-x="792" d="M48 752l72 128q8 8 16 24q168 168 328 168q224 -8 280 -208v-8q-8 -64 -112 -128q-8 -8 -16 -24q-64 -136 -80 -200q0 -64 -16 -88l-16 -224l-8 -8q0 -8 -8 -8q0 -8 -32 -8q-8 0 -24 16v24q0 56 16 176q8 32 8 48q8 0 8 16q0 24 16 64q16 88 16 128v24l-72 -24 q-104 -32 -168 -32q-200 8 -208 120v24zM128 720q0 -56 104 -56h24q40 -16 40 32q0 8 16 8t16 16q8 0 48 8q128 16 152 32q16 16 24 40q8 32 40 32h24q16 -8 24 -8q24 0 24 16q-8 112 -112 160q-16 8 -104 8h-8q-232 -80 -312 -288z" />
<glyph unicode=":" horiz-adv-x="496" d="M136 528q0 24 40 24q16 0 48 -8q24 -8 40 -8h32q40 8 48 8q40 0 40 -24q-8 -40 -152 -56q-96 0 -96 64zM176 712q-32 8 -24 32q0 40 48 40h8q24 -8 32 -16h40q96 0 96 -24q0 -8 -16 -24q-16 0 -40 -8q-16 -8 -32 -8h-16q-16 8 -96 8z" />
<glyph unicode=";" horiz-adv-x="600" d="M336 336q0 8 -8 32q0 16 -8 24q-48 40 -72 56l-8 8q-40 8 -40 32q0 32 40 32h24l8 -8q136 -72 128 -152q0 -72 -64 -176q-16 -24 -24 -40q-8 -8 -16 -32q-8 -8 -8 -16q-104 -128 -176 -144q0 32 32 56l8 8q136 184 184 320zM272 776q0 32 40 32q32 -8 88 -32h24 q32 8 40 -24q-24 -24 -96 -24h-16h-56q-24 8 -24 48z" />
<glyph unicode="&#x3c;" horiz-adv-x="848" d="M632 280l-360 248q-24 8 -32 16q-16 16 -32 24q-56 32 -128 40q-32 32 -24 40q8 16 24 24q8 0 40 8h40q128 56 344 200q24 8 32 16q24 16 176 152h48q0 -48 -136 -152q-32 -24 -40 -32q-8 0 -40 -32q-40 -24 -48 -32t-32 -16q-56 -32 -64 -48l-176 -96q0 -8 8 -8 l288 -208q24 -8 72 -40q40 -40 64 -48v48h32q8 0 16 -32q16 -32 32 -40l8 -8q32 -16 32 -32q0 -8 -8 -16q-16 -40 -40 -40q-32 8 -80 48q-16 8 -16 16z" />
<glyph unicode="=" horiz-adv-x="992" d="M576 520l-424 -48h-24q-72 8 -72 56q8 48 104 32h24h64q56 8 80 0q104 8 304 32h200h56q56 -8 48 -32q0 -40 -32 -40t-128 8q-152 8 -200 -8zM216 776l272 8q24 -8 80 8q40 8 56 8q104 16 168 8q32 0 40 -16v-16q0 -32 -40 -32q-24 0 -136 -8h-32q-40 -8 -48 -8h-8 q-8 -8 -16 -8l-248 -16q-40 -8 -88 -8q-16 8 -32 8q-24 8 -24 40v24q32 16 56 8z" />
<glyph unicode="&#x3e;" horiz-adv-x="1080" d="M200 360v-8h8l88 40l344 240q24 24 80 64q72 64 104 96q0 8 -16 8q-72 8 -144 8q-16 0 -56 8q-264 16 -384 88q-8 0 -48 24q-8 8 -16 8v16l-8 8q8 32 24 32q8 0 24 -8l8 -8q16 -8 32 -8l24 -16t24 -24q24 -8 64 -16q16 -8 24 -8q96 -24 184 -32q56 0 176 -16 q128 -16 192 -16l8 -8q24 0 24 -24q-40 -40 -48 -40q-128 -112 -184 -136l-80 -72q-16 0 -64 -40q-16 -24 -24 -24q-32 -24 -96 -64q-40 -32 -56 -40q-32 -24 -56 -32q0 -8 -16 -16l-16 -8l-136 -64h-16q-24 0 -32 40q40 80 128 128v-8q0 -32 -64 -72z" />
<glyph unicode="?" horiz-adv-x="784" d="M336 216q0 64 48 64q32 0 32 -48q0 -72 -48 -72q-24 0 -32 56zM424 640l216 248q32 32 32 120q0 64 -136 64h-16h-48h-24q-56 -8 -72 -8q-64 -24 -168 -48q-8 0 -16 -8q-16 -8 -24 -16l-32 -16q-32 -16 -56 -16q-40 0 -40 24q8 48 56 56q8 8 56 24t56 16q120 32 240 56 h128q160 -8 168 -136q0 -64 -24 -112q-24 -40 -80 -112l-32 -32q-24 -24 -64 -72t-64 -80q-8 -16 -40 -32q-24 -8 -32 40q0 24 16 40z" />
<glyph unicode="@" horiz-adv-x="888" d="M568 520h-8q0 -24 -40 -56q-24 -16 -32 -24q-24 -24 -80 -32q-16 -8 -24 -8q-72 8 -80 144q8 8 8 24v16q0 8 8 16q88 248 168 248q152 -16 168 -128q0 -8 -16 -32q-8 -8 -8 -16q-16 -48 -16 -104q0 -72 24 -72h8q16 8 24 8q72 104 96 200q0 16 8 48v40q24 272 -280 264 q-48 8 -128 -24q-24 -8 -104 -104q-8 -16 -16 -24q-80 -112 -120 -368q0 -16 8 -48q8 -64 16 -96q64 -104 272 -120q80 0 176 48q56 32 96 40h24v-8v-56q-8 0 -16 -16q-32 8 -152 -56l-16 -8q-16 0 -48 -8q-72 -24 -112 -16q-336 72 -320 328q0 24 16 72q8 24 8 32 q16 72 24 144q32 88 80 160q80 80 104 128q56 64 200 64q280 -8 328 -176q0 -8 8 -24q16 -72 8 -112q8 -176 -96 -336q-48 -48 -80 -48l-8 8h-8l-16 16q-56 32 -56 72zM368 536q0 -80 32 -80q40 0 96 56q32 64 48 80q8 16 16 56q8 32 16 48q24 0 24 16q-16 64 -104 80 q-80 -24 -128 -256z" />
<glyph unicode="A" horiz-adv-x="768" d="M48 280l136 272v24q72 136 136 272q0 8 16 48q32 120 40 128q8 16 16 56q16 104 72 144h8q24 0 24 -40q0 -32 16 -40q72 -136 96 -296q16 -64 32 -208q16 -136 32 -200q24 -32 24 -120q0 -32 -32 -32q-72 8 -112 168q0 8 16 8q8 0 16 -8l8 -8q8 0 8 16v8q0 24 -16 128 q-8 80 -8 88q-32 248 -104 384q-32 -48 -64 -160q-8 -32 -16 -48q-24 -40 -40 -88q0 -8 -16 -32q-64 -120 -64 -136q16 0 72 8h72h8q72 -8 72 -32q-8 -40 -48 -48h-96q-16 0 -16 -8q-32 0 -56 24q-24 8 -32 8l-8 -8q-72 -144 -96 -208q0 -8 -16 -48q0 -8 -8 -24 q-24 -48 -32 -56h-16q-24 0 -32 24q0 24 8 40z" />
<glyph unicode="B" horiz-adv-x="712" d="M288 408l-56 -88q8 -8 0 -32q-8 -16 -8 -24q8 -32 32 -32q88 24 168 136q96 128 112 272q0 48 -104 80q-8 8 -16 8h-48q-128 0 -128 -32v-104q-8 -88 -8 -104v-72l-8 -16t-16 -16q-56 0 -56 104q0 16 16 32q8 24 8 32v152h-16q-88 -8 -88 32q0 24 56 40q32 0 40 8v24 q0 112 -72 312q0 8 -16 24q-8 16 -8 24q8 32 32 32q32 0 48 -40q8 -24 16 -24t48 24q16 16 24 16q136 56 288 56q136 0 136 -80q0 -128 -184 -272q-48 -32 -112 -72v-8q48 -8 64 -8q160 -40 160 -144q0 -120 -64 -232l-8 -8q-136 -240 -288 -232h-32t-24 40v16 q40 200 144 224q0 -32 -32 -48zM200 1008v-8t8 -56q8 -56 16 -64q0 -64 24 -64q48 0 136 72q24 24 40 32q24 16 80 56q96 112 104 168q0 24 -32 32h-56q-312 -16 -320 -168z" />
<glyph unicode="C" horiz-adv-x="832" d="M32 600q40 352 456 400q200 -8 208 -80q0 -40 -48 -40q-8 0 -16 16l-8 8q-40 48 -144 40q-88 0 -216 -64q-184 -152 -160 -344q8 -8 8 -24q8 -24 8 -32q64 -144 240 -144h40t24 8q88 24 256 112q24 16 40 24q-16 40 48 40q32 0 32 -32q0 -8 -8 -24q-8 -8 -8 -24 q-112 -40 -200 -104q-16 -8 -40 -16q-104 -40 -160 -48q-344 8 -352 328z" />
<glyph unicode="D" horiz-adv-x="840" d="M248 320v8q-8 16 0 128v24q0 48 8 152q8 168 0 256q0 8 -8 16q0 8 -8 8q-40 -8 -88 -32q-24 -8 -32 -16h-8h-8q-16 8 -24 8q0 8 -16 24q-8 16 -16 16q0 8 -8 8q8 16 24 24q56 8 152 32q16 0 24 24t32 16q8 0 24 -8h16q32 0 96 16q72 16 112 8q72 0 152 -40h8 q128 -128 120 -272q0 -72 -8 -96q-192 -376 -504 -360q-72 0 -104 48q8 0 0 24q0 8 8 24q8 48 24 56q8 0 8 -32q-8 -64 24 -64zM328 920l-8 -128l8 -16q-8 -88 -8 -280q-8 -120 -8 -184q136 0 272 128q8 8 32 40q40 48 56 64q8 16 16 40q40 88 48 128q-8 224 -208 264 q-8 -8 -64 -8q-136 -8 -136 -48z" />
<glyph unicode="E" horiz-adv-x="824" d="M104 640l40 40q0 80 -24 136q-24 24 -24 48q0 16 24 40q16 16 16 40q0 8 16 24q128 -8 248 8q16 0 40 8q32 8 48 0l192 40q16 -8 48 0q24 8 32 8q32 0 32 -32t-40 -40h-24t-24 -8q-32 -8 -40 0l-264 -40h-8q0 -8 -8 -8h-72h-56q-56 -8 -64 -8v-16v-16q16 -80 24 -168v-16 h40q80 16 224 56q8 8 64 32q48 24 56 24t16 24q0 16 16 16t40 -24q8 -8 8 -16v-8q-8 -16 -40 -48q-168 -80 -224 -80q-8 -8 -88 -24q-40 -16 -48 -16h-32q-24 -8 -40 -192q-8 -56 -8 -64h8q24 8 160 48q80 32 96 32q8 0 24 8q160 40 216 32h32q8 -8 16 -32q-16 0 -24 -24 q0 -16 -8 -16q-112 24 -352 -72l-24 -8q-24 0 -32 -8l-152 -72h-40q-24 -8 -40 -8q-48 8 -48 56q0 32 48 32q32 0 40 8q32 48 32 160v88q0 8 -24 16q-24 16 -24 32v8z" />
<glyph unicode="F" horiz-adv-x="800" d="M152 352l8 280h-24q-96 -16 -96 40q8 0 16 16l96 16l8 8q0 88 -8 120q-16 104 -32 120q-8 8 -24 8q-48 16 -48 48t48 32q8 0 48 -8h64q8 -8 48 0h8q16 8 104 8h80q104 0 264 48l16 8q32 -16 32 -40q0 -16 -16 -16q-24 -8 -24 -16q-120 -40 -368 -56q-96 0 -144 -8v-8 t16 -24q0 -8 8 -64v-32v-32q-8 -32 -8 -40v-8q0 -40 16 -40q160 8 424 120l16 24q8 32 16 24l56 -32v-8q0 -48 -80 -72q-32 -8 -48 -16q-40 -24 -48 -24q-80 -24 -144 -48q-8 0 -72 -16q-112 -16 -120 -24q-8 -16 -8 -56q-8 -32 -8 -48q0 -168 -8 -200q-8 -56 -16 -80 q-16 -16 -16 -32h-24q-32 8 -40 56q0 16 8 24q16 16 24 48z" />
<glyph unicode="G" horiz-adv-x="960" d="M504 312l-184 -56h-120q-8 0 -88 40q-80 56 -88 200q0 40 32 152l24 72l80 152q16 8 48 40q24 32 48 40q8 8 24 16q120 112 192 112t152 -96l16 -16q0 -8 8 -16q16 -16 16 -32q0 -56 -40 -64q-16 0 -32 48q-40 104 -120 104q-120 -8 -280 -200q-16 -24 -32 -72 q-16 -56 -32 -80l-32 -136v-16q-16 -192 176 -184h56q8 0 32 8q32 8 40 16q56 16 88 32q48 -8 56 56v32q-8 24 -8 32q0 16 8 48v40q8 32 -32 24q-32 0 -88 -8q-64 -16 -96 -16h-32q-16 8 -16 32t8 32q24 8 80 8q136 8 184 48q56 0 120 16q8 8 24 16q16 16 24 16q16 0 40 16 q48 16 64 16q104 -8 104 -40q0 -64 -200 -96h-24h-40q-24 0 -32 -8q-16 -24 -24 -152v-40q24 8 64 64q24 32 32 32q16 0 16 -24q0 -64 -64 -120q-48 -40 -48 -72q0 -48 24 -48q0 -48 -40 -48q-24 0 -56 64l-16 24z" />
<glyph unicode="H" horiz-adv-x="776" d="M88 1088l48 8q32 0 40 -264q0 -16 8 -56h24q112 24 312 48q56 8 88 8q24 0 24 8q8 8 8 88v8q0 120 -24 176q0 40 32 40q56 -8 72 -96q8 -208 -40 -448q-8 -8 -16 -96q-32 -256 -72 -256q-8 0 -16 32q0 56 16 120v16q0 40 8 112q16 144 16 224q-8 0 -48 8h-32 q-8 -8 -80 -16q-64 -8 -72 -8l-40 -8q-72 -16 -80 -16q-80 -16 -80 -72q0 -24 8 -24q-8 -40 0 -120q8 -48 8 -80v-40q-8 -8 -8 -48q0 -48 8 -56q24 16 24 -40q0 -48 -48 -56q-24 0 -48 56v16v144q-8 184 0 280q-8 8 -16 8l-16 32q0 16 8 32t8 24q0 152 -40 296q8 0 16 16z " />
<glyph unicode="I" horiz-adv-x="512" d="M224 208q8 112 16 344q8 112 8 168q-8 56 0 184q8 152 -8 224q-8 16 -8 32q8 24 32 16q32 0 40 -40q8 -16 8 -24q16 -176 -8 -544q-8 -160 -8 -240q8 -8 0 -48v-16q0 -72 -40 -72q-24 0 -32 16z" />
<glyph unicode="J" horiz-adv-x="632" d="M40 344q40 136 120 160q0 -24 -32 -72t-32 -80q0 -48 24 -48h48q56 0 96 16q56 40 136 96q16 16 40 56q24 32 32 40q40 104 40 200q0 200 -80 336q-24 24 -40 104q0 16 16 16q48 0 64 -32q96 -184 112 -400v-64q-8 -64 -8 -72q-16 -24 -32 -72q-8 -48 -16 -64 q-144 -216 -360 -224q-120 8 -128 104z" />
<glyph unicode="K" horiz-adv-x="728" d="M112 632l8 256l-24 184v16q-8 40 24 32q16 0 32 -16q8 -32 8 -96q8 -64 16 -96q16 0 16 -8l-8 -96q48 -24 64 -40q32 -8 40 -16q0 -8 -8 -16q-16 -8 -16 -16h8q56 32 88 48q8 8 32 24q160 112 232 104q48 0 48 -40q-16 -56 -48 -72h-8l-16 48l-32 -8l-248 -152 q-16 0 -32 -24q0 -16 24 -32q16 -24 16 -32l208 -240q0 -8 24 -16q32 -16 32 -32q-8 -40 -32 -48q-16 0 -40 16q-8 8 -16 8l-240 288q-16 32 -32 40q-32 0 -64 -96v-16q-8 -64 16 -80l-8 -120l-24 -24q-8 -16 -24 -16q-8 0 -16 16q-8 8 -8 16q0 16 -8 104v88v56q0 56 16 104 zM184 712v-56q16 0 16 16q0 8 -8 32q8 -8 -8 8z" />
<glyph unicode="L" horiz-adv-x="768" d="M144 1048l16 64q0 16 40 16q24 8 16 -16l8 -128l8 -16v-24v-120l-64 -440q-8 0 -8 -8t8 -24q40 0 48 -8q48 -8 88 0h8l240 40q64 8 120 40q8 -8 24 -16q32 -8 24 -32q0 -8 -8 -16q0 -8 -8 -16q-16 -8 -24 -8t-80 -8q-80 -16 -88 -16t-24 -8q-240 -48 -368 -32h-8 q-32 16 -32 40q0 8 8 24v24q8 48 32 176t32 176q32 144 -8 336z" />
<glyph unicode="M" horiz-adv-x="912" d="M760 960h-8l-120 -88q0 8 -32 -24t-40 -32q-8 -8 -32 -24q-64 -48 -104 -48q-56 0 -144 80q-64 48 -88 48v-56q16 -120 8 -144q-8 -72 -32 -208q-8 -24 -16 -88q-8 -24 -8 -40l-32 -32q-8 -8 -32 24q-8 32 -8 72t16 72q16 0 16 8q24 104 32 192v56v48q8 120 -8 160 q0 16 -24 40l-8 8q-8 0 -8 8l-8 16t-8 32q0 8 8 24v8q8 8 8 16h16h24q8 -8 48 -64t48 -64l88 -88q8 -8 32 -24q40 -32 80 -32t96 48q24 8 32 16h8q56 72 112 96l80 72q8 8 24 8h16q32 0 40 -32v-120v-120t-8 -144l-8 -16q8 -72 -8 -208q-8 -104 -8 -152q0 -32 -32 -40 q-8 -8 -32 -8q-16 24 -16 88q0 8 8 48l8 40v8q-8 16 8 24q0 24 8 136q8 120 8 136v264z" />
<glyph unicode="N" horiz-adv-x="832" d="M320 848l-8 8q-24 -16 -32 -104q-8 -24 -8 -32q-104 -400 -184 -424q-16 0 -24 24l-8 16q16 48 24 96q0 8 16 24q16 24 16 40l16 -8q112 264 120 472v24q-8 16 -8 24t8 32l-8 112q0 16 32 16q56 8 56 -104v-16l8 -8q8 -40 32 -112q32 -72 32 -104q32 -64 64 -208 q32 -128 56 -184v-8q32 -96 64 -112q64 192 104 400q16 104 8 168q8 0 8 8t-8 48q-8 32 -8 40q-8 16 -24 32q-32 40 -32 56q0 32 24 32q80 0 112 -208v-16q8 -104 -40 -288q-8 -40 -8 -56v8q0 64 -56 -280q-24 -72 -48 -72q-80 24 -152 232q-32 80 -80 248l-24 96 q-24 64 -40 88z" />
<glyph unicode="O" horiz-adv-x="864" d="M216 312q-32 24 -64 64q-24 40 -48 56q-48 72 -56 160q0 184 280 448l24 24q48 32 96 32q24 0 40 -16t32 -16q32 -8 40 -8q64 -16 152 -80q48 -56 104 -200q8 -24 8 -32q8 -64 -40 -192q-8 -24 -8 -32q-152 -264 -336 -272q-120 0 -224 64zM448 888v48q16 16 16 32 q-8 40 -40 64q-24 0 -80 -56q-16 -8 -64 -64l-8 -8q-16 -16 -64 -72q-32 -40 -40 -48q-16 -24 -24 -56q-24 -40 -24 -104q32 -288 312 -320q176 8 312 312q16 16 8 56v16q-24 288 -224 304q-48 -32 -56 -32q0 -8 -8 -32q0 -40 -16 -40z" />
<glyph unicode="P" horiz-adv-x="800" d="M144 624l-8 16v96q0 16 16 16t16 -24q16 88 16 176q0 152 -40 168h-32q-32 0 -48 32q0 8 -8 16q8 8 8 16q64 0 176 8h168q336 8 336 -160q-16 -112 -88 -216l-24 -24q-184 -224 -408 -184q0 -24 -8 -64q-16 -80 -16 -120q0 -16 8 -48v-56q8 -48 -32 -80h-8q-24 0 -32 16 q0 8 -8 40v24q0 48 8 144q8 88 8 136v72zM240 1080l-8 -8q0 -8 8 -56t8 -64q0 -56 -16 -160q-8 -96 -8 -144v-32h24l24 -8h8q256 32 392 344q0 8 8 8q8 8 8 32q0 32 -72 80q-8 0 -72 8q-56 8 -72 8h-48q-48 -8 -56 -8h-128z" />
<glyph unicode="Q" horiz-adv-x="840" d="M136 912q176 240 368 240q128 -24 152 -88v-56q8 0 8 -16q96 -96 96 -168v-144q0 -48 -96 -160q-56 -64 -56 -80q8 -24 16 -24q8 -8 40 -48q40 -40 40 -48q8 -8 16 -8q32 -16 32 -40q-8 -40 -40 -48q-16 0 -80 88q-64 80 -80 80l-16 -8q-120 -80 -208 -80 q-120 0 -216 144q-48 112 -48 192q0 144 72 272zM264 608h48l144 -64q48 -56 96 -64q32 16 88 96q8 8 16 32l16 32q16 40 24 72v152q-32 80 -136 128h-56l-16 16q-24 32 -24 40q0 16 24 32l8 8l-8 8h-16q-32 0 -128 -48q-8 -8 -16 -8q-192 -112 -200 -424q24 -224 200 -248 q96 0 168 64q-88 96 -192 88q0 16 -24 32q-32 8 -32 24q0 32 16 32zM544 1080q16 -8 24 -24l8 8q0 24 -32 16z" />
<glyph unicode="R" horiz-adv-x="752" d="M96 656q0 8 16 40v8q8 32 8 224q-8 16 -8 208q0 24 40 24h24q8 -32 8 -96q8 -40 8 -56v0q152 48 288 40h32l24 -8q112 -40 120 -144q-24 -112 -192 -200q-16 -16 -104 -56l-24 -8q-16 0 -16 -8q-8 -24 64 -72q24 -16 32 -24q8 0 56 -48q40 -48 48 -56q24 -16 40 -24h24 q8 -8 8 -40q8 0 24 -24q24 -24 24 -32v-8q-24 -48 -40 -48q-16 8 -24 24l-16 16q-16 16 -48 56q-224 248 -304 248q-16 16 -40 0v-24q-8 -16 -8 -24v-128q8 -88 0 -136q-24 -40 -48 -40q-40 8 -16 280q8 56 8 64t-8 64v8zM232 952v-48h-8q-32 8 -32 -8v-8v-48q-8 -48 -8 -56 v-16q-8 -88 48 -96q248 64 352 240q0 64 -104 80q-128 0 -192 -16q-16 -8 -56 -24z" />
<glyph unicode="S" horiz-adv-x="776" d="M144 328v-8q120 0 328 64q56 16 88 24q88 40 88 48q-8 40 -64 72q-32 16 -48 32q-32 32 -120 80q-16 8 -40 24q-232 144 -224 272q-8 24 24 40q64 48 192 104q56 24 88 40h32q8 0 40 -8l32 -8q8 -16 40 -40q56 -40 56 -72q0 -16 -8 -32q-32 -48 -80 -104q-8 -32 -32 -32 q-40 0 -40 40q0 16 40 56q40 48 40 72q-8 56 -88 64q-80 0 -224 -104q-32 -16 -40 -24v-8q0 -72 136 -168q112 -72 296 -200q8 -16 64 -72q16 -16 16 -40q-32 -56 -88 -72q-64 -24 -192 -56q-104 -24 -152 -40q-88 -8 -152 -24h-32q-72 0 -72 40q0 48 64 112q56 72 152 88 q8 0 8 -16q0 -24 -48 -56q-40 -16 -48 -32t-32 -56z" />
<glyph unicode="T" horiz-adv-x="864" d="M112 1048h208q16 0 24 24q16 32 40 32q16 0 32 -16q16 -24 32 -24q48 0 160 24q112 32 168 32h8q56 8 56 -24q0 -80 -216 -64h-16t-24 -8q-8 0 -40 -8q-96 0 -96 -32v-16q8 -16 8 -32q0 -40 8 -48q8 -40 0 -128v-56q0 -184 -72 -456l-16 -16h-8q-32 0 -32 40q8 80 40 136 q0 16 16 104q8 80 8 96v112v104q-8 72 -24 144l-8 8q0 8 -8 8h-80h-80q-56 -8 -88 -8q-80 0 -80 56q0 24 32 24q24 0 48 -8z" />
<glyph unicode="U" horiz-adv-x="864" d="M808 680l-104 -232q-80 -152 -264 -168q-40 0 -120 32q-24 8 -32 8q-16 16 -56 32q-40 24 -56 32q-128 128 -128 384q0 72 8 144q24 48 48 64q16 0 16 -8v-40v-48v-48q-8 -40 -8 -48q24 -320 176 -392q80 -40 120 -40q160 0 280 224l24 48q48 128 8 248q-24 8 -24 40 q0 40 24 40q40 0 72 -64q8 -32 16 -40q8 -56 8 -112q0 -24 -8 -56z" />
<glyph unicode="V" horiz-adv-x="800" d="M128 872l-80 128v8q0 24 32 24q48 0 96 -112q8 -32 16 -40q16 -40 48 -128q16 -40 24 -64q24 -40 64 -136q40 -88 64 -136q16 32 32 88q72 160 120 248q24 32 56 96t48 88q8 8 16 40q32 104 64 104q24 -8 32 -32v-16q0 -24 -16 -48q-16 -40 -64 -120q-40 -80 -64 -120 q-32 -48 -72 -152q-32 -72 -48 -104q-8 -32 -24 -80q-24 -80 -24 -136q-8 0 -8 -16q-8 -24 -24 -24t-32 8q-16 16 -32 80q-8 40 -16 64q-8 16 -32 56q-72 144 -104 232q-8 40 -40 120q-24 48 -32 80z" />
<glyph unicode="W" horiz-adv-x="968" d="M616 488l8 -8q16 -56 64 -136q0 8 8 -8q0 -8 8 -8q16 0 32 40q8 16 16 24q8 16 32 80q32 72 32 80t8 32v32q8 0 8 16q0 8 8 32q8 72 8 112q0 72 -32 144q0 8 -16 32t-16 32q0 24 40 24q72 -8 96 -216v-40q-8 -32 -8 -48l-32 -176l-16 -32q-88 -248 -144 -248t-120 136 q-24 48 -32 48q0 8 -16 64l-8 32q0 8 -8 24q0 32 -16 40l-24 -56q-32 -72 -40 -80q0 -8 -8 -16q-56 -120 -112 -160q0 -8 -16 -8q-48 8 -88 40l-64 64q-8 32 -40 96q-16 40 -24 56q-48 192 -48 368v72q8 8 16 8q24 0 32 -8q16 -8 16 -152q8 -112 16 -112q24 -200 96 -304 q8 0 24 -24q32 -32 48 -32t16 8q72 112 88 152q80 144 88 264v40q-16 32 -16 56q0 16 8 24h24q72 0 64 -144v-24q8 -16 8 -56q8 -40 8 -64q8 -32 24 -112z" />
<glyph unicode="X" horiz-adv-x="888" d="M624 360l-136 192q0 8 -16 16l-8 8h-8l-56 -40l-264 -256q-16 -16 -24 -16t-16 -8q-32 0 -32 40v16l16 16q40 40 64 56l64 64q48 40 64 56q48 40 144 136v16q0 24 -40 56l-24 24t-16 24t-40 56q-16 16 -48 40q-136 104 -136 168q0 16 16 16q32 8 88 -72l32 -32 q24 -16 24 -24q80 -72 152 -160l16 -16q24 -48 32 -40l88 88q8 32 80 104q48 40 64 64v8q56 120 96 120q32 0 32 -32q0 -16 -8 -40q-32 -48 -72 -104q-8 -16 -80 -88q-8 -16 -48 -56q-104 -104 -104 -128q40 -104 176 -256v72h8q8 0 24 -24l8 -16t8 -56q8 -32 8 -40t16 -16 q16 -16 16 -24q0 -48 -40 -48q-56 40 -120 136z" />
<glyph unicode="Y" horiz-adv-x="992" d="M896 1176h48q8 -16 8 -24q-24 -88 -240 -232q-32 -24 -48 -32q-32 -8 -136 -80v-88v-8q-8 -16 0 -24q8 -24 8 -128v-16q0 -48 -8 -128t-8 -120t-8 -128l-40 -32l-8 -8q-8 0 -16 16l-8 8v40q0 64 16 184q16 112 16 168q0 16 -8 56q0 16 -8 80q-8 72 -8 80h-16 q-16 -8 -24 -8l-16 8q-40 16 -40 32q0 24 24 48t24 40q-112 24 -248 112q-24 8 -80 56q-24 16 -16 32q16 16 40 16q48 0 144 -72q32 -24 40 -32q104 -64 232 -64t248 112q8 0 56 48q16 24 16 32q24 16 64 56z" />
<glyph unicode="Z" horiz-adv-x="992" d="M504 712h8l160 168l8 16q-32 16 -96 8h-32q-24 0 -72 8q-200 0 -304 32q-8 8 -8 16q0 32 32 40h8h16q16 0 56 -8q200 -32 296 -24q16 -8 120 0h24q56 0 64 -32q0 -48 -88 -136l-8 -8q-32 -40 -120 -120v-16q72 -40 80 -104q0 -24 -16 -32q-16 0 -40 40l-8 8l-56 56h-24 l-104 -104q-8 0 -160 -152q0 -8 8 -16h80q72 -8 80 -8h8q40 16 56 0q232 24 368 32q16 8 24 8q16 8 8 8l-48 96q0 8 8 8h32l88 -80q8 -8 8 -32v-8q8 -40 -8 -40q-88 -24 -272 -32q-40 -8 -64 -8h-72q-64 -8 -72 -8h-16h-152q-128 8 -192 0h-8q-32 16 -32 40t8 24 q224 136 368 304q-8 24 -48 40q-48 24 -48 56q-8 8 16 16l16 8q56 0 120 -64z" />
<glyph unicode="[" horiz-adv-x="712" d="M136 1168v8q8 0 16 24q64 -8 184 16q104 24 160 24q32 0 88 -16q32 -8 48 -8l8 -8v-8q-8 -40 -48 -48q-32 8 -48 16h-80h-80q-8 0 -48 -8q-88 -16 -88 -24l-8 -8v-72q8 -8 8 -48t-8 -136t-8 -144v-136q0 -144 -16 -216l24 -176q0 -8 40 -24q8 0 40 -16q144 -8 200 -16h8 t24 8h8q72 -8 80 -40q-8 -40 -48 -48q-8 0 -32 8q-16 8 -32 8q-72 16 -232 16h-32q-24 -8 -40 -8q-48 0 -56 80v32l-16 64v56q0 56 8 112q0 32 8 216q8 192 8 232v56q0 96 -16 168q-8 40 -24 64z" />
<glyph unicode="\" horiz-adv-x="704" d="M360 616l-40 96q-72 120 -88 136q-16 40 -40 80q-8 16 -40 48q-56 64 -56 104q0 24 32 24q24 0 152 -208q32 -48 40 -56q40 -64 88 -192q24 -56 32 -80q8 0 8 -8q8 -8 48 -88q24 -8 40 -40l16 -16t24 -56t16 -56q24 -40 24 -48q-16 -32 -48 -48q-16 0 -24 16q0 8 -16 32 q-8 24 -16 24q-16 48 -152 336z" />
<glyph unicode="]" horiz-adv-x="672" d="M416 440v456q16 40 24 192v24q-16 8 -96 8q-240 0 -240 56q0 16 16 32h24h24q16 0 48 -8q64 -16 88 -16h208q16 0 24 -16v-24q0 -40 -24 -128q-8 -24 -16 -40q0 -8 -8 -56q-8 -56 -8 -72v-8v-32q-8 -24 -8 -32q0 -248 24 -504q0 -16 24 -56q16 -40 16 -56q0 -32 -48 -56 q-56 8 -152 -8q-88 -16 -128 -16h-56q-24 8 -32 32q8 48 96 64q8 0 16 -8q8 -16 24 -16q72 0 184 48v8q0 128 -24 232z" />
<glyph unicode="^" horiz-adv-x="704" d="M88 1088l184 200q40 64 88 128q0 8 8 16q8 40 32 40q40 -8 40 -24l56 -136q8 0 8 -8q40 -72 72 -128l24 -24q32 -32 32 -48q-8 -48 -40 -56q-16 0 -32 8q-40 80 -88 152q-8 24 -32 72q-16 48 -32 72h-8t-112 -128q-152 -184 -176 -184q-16 0 -24 48z" />
<glyph unicode="_" horiz-adv-x="1464" d="M520 168h728q32 16 80 16h16q24 -8 56 -32v-8t-16 -32t-16 -32q-48 24 -168 24h-216q-8 0 -24 8h-8q-16 0 -112 -8h-80h-264h-16q-16 -8 -24 -8h-120q-8 -8 -88 -8q-56 -8 -64 -8h-24q-24 -8 -32 -8q-40 8 -48 56q0 16 16 24q8 8 56 8h24l24 -8h24h40t112 8q120 8 144 8z " />
<glyph unicode="`" horiz-adv-x="440" d="M96 1360q-8 48 32 40q40 0 232 -200q0 -24 -16 -40q-8 -8 -8 -16q-8 -16 -32 -16h-8q-8 32 -24 56q-16 16 -112 96l-64 64v16z" />
<glyph unicode="a" horiz-adv-x="704" d="M496 560q-40 -24 -64 -80l-120 -120q-40 -40 -96 -40t-88 56q-8 16 -16 24t-16 24q-40 40 -40 80q0 16 -8 64v48q0 40 24 96q8 24 8 32q72 104 336 120q32 0 64 -32q24 -24 40 -32q16 0 24 -8q24 -16 24 -80v-176q8 -16 8 -48q16 -88 56 -112q16 -16 32 -112 q0 -56 -40 -56q-32 0 -80 216q-32 136 -48 136zM272 400l104 112v32l104 112q8 8 8 40q8 128 -128 120q-120 -8 -192 -72l-8 -16l-32 -32q-8 -16 -16 -64l8 -48v-48q16 -152 96 -160q32 0 56 24z" />
<glyph unicode="b" horiz-adv-x="608" d="M120 1184l48 -272q-8 -24 16 -64v-152q8 0 8 -24v-24l16 16q104 72 168 72q120 -8 152 -64l32 -96q-8 -24 -24 -48q-56 -128 -288 -192q-56 8 -56 -16v-56q0 -24 -40 -24q-56 0 -56 152q0 48 16 136q16 80 16 120v72q-8 8 -8 64t-40 256q0 16 -16 56q-16 48 -16 80 q8 32 32 32t40 -24zM240 496q0 -16 -24 -48q-32 -40 -32 -72q264 64 312 208q-8 88 -112 96q-176 -24 -200 -168q0 -16 8 -32q8 16 40 16h8z" />
<glyph unicode="c" horiz-adv-x="768" d="M376 608q-8 16 -8 32q8 8 8 16q8 16 8 24q0 24 -64 24q-192 -32 -208 -136q24 -120 192 -144q72 0 192 32q32 8 48 16t32 8q48 0 48 48q8 24 24 24q64 -16 72 -64q0 -40 -136 -64q-40 -16 -48 -16q-120 -40 -240 -40q-56 0 -104 24q-8 8 -16 8h-16q-96 56 -112 168 q16 160 288 192h56q8 -8 24 -16q40 -32 40 -40q-32 -64 -80 -96z" />
<glyph unicode="d" horiz-adv-x="720" d="M464 432q-8 0 -56 -32q-80 -56 -104 -64h-40q-32 -8 -48 -8q-88 8 -136 80l-16 16q-24 40 -24 56v24q56 344 368 392q24 0 56 -32q16 -24 32 -24q8 8 8 48q0 24 8 80q16 176 8 264q0 16 24 8q40 0 48 -48v-24q16 -40 16 -48t8 -32q0 -40 8 -56q0 -16 16 -88q8 -48 8 -56 v-32v-32t-8 -64l-8 -8q-16 -104 -64 -184q-40 -56 -40 -144v-8q8 0 8 -8q-8 -8 -8 -24t8 -16t16 8h8v-16v-88q16 -16 8 -48v-8v-24q-8 -24 -32 -56h-8q-48 0 -56 240q-8 48 -8 56zM472 688v112q-8 32 -80 56q-72 0 -168 -96q-48 -56 -72 -72q0 -16 -24 -48q-32 -56 -32 -112 q8 -128 128 -136q216 32 240 176q0 16 -8 40q-8 16 -8 24q0 16 8 32q16 16 16 24zM584 1008q-16 -40 -16 -128q-8 -48 -8 -64q0 -24 -8 -72t-8 -80v-24q64 56 64 216q0 104 -24 152z" />
<glyph unicode="e" horiz-adv-x="704" d="M48 512q0 8 16 16t16 24v8l-8 8q32 256 312 288q88 0 184 -120l24 -24q24 -16 24 -40q0 -40 -64 -72l-48 -24t-32 -24l-96 -48q-40 -24 -88 -24l-16 -8t-24 -8q0 -8 16 -24q112 -48 184 -48t128 24q24 32 64 32q16 -8 24 -16q-8 -80 -216 -96q-88 0 -144 24 q-40 16 -96 48q-56 40 -112 48q-48 8 -48 56zM136 592q8 -40 32 -72h32q136 8 320 128q8 0 16 16l8 8q0 16 -16 24l-8 8q0 8 -24 40q-16 24 -24 32q-48 24 -96 24q-216 -24 -240 -208z" />
<glyph unicode="f" horiz-adv-x="648" d="M264 728l-136 -8q-88 0 -88 40q8 32 24 32h168q40 0 32 40q0 32 8 80q8 184 72 280q16 24 24 16q96 -24 112 -104v-16q24 -8 24 -40q-16 0 -40 32q-32 56 -72 56h-8q-24 -48 -40 -96q0 -8 -8 -8v-56t-8 -56v-80v-8q-8 0 -8 -8t24 -8q48 0 112 24t112 24h40l8 -16v-24 q0 -8 -8 -32q-56 -8 -120 -8l-136 -32q-16 -8 -24 -32l-8 -8v-72v-72l8 -56v-56q8 -56 8 -160v-216l-16 -144q-16 -32 -40 -32q-56 8 -72 96q0 8 8 24v8q16 -8 24 -32l24 -24q8 8 8 24q8 24 8 32q8 72 0 176v88q-16 104 -16 432z" />
<glyph unicode="g" horiz-adv-x="656" d="M152 744l176 88q16 0 32 16q40 16 64 16q136 0 184 -144v-8q0 -16 -16 -48q-16 -16 -16 -24v-24t-24 -48q-8 -64 -16 -160q-8 -32 -8 -56l-8 -16l8 -8v-16q-8 -320 -120 -384q-104 -40 -184 -48q-16 0 -16 24v8q112 24 192 80l16 16q48 136 48 432v56q-8 0 -40 -24 l-24 -8q-72 -32 -184 -32q-144 16 -160 144q8 112 96 168zM232 488q40 16 136 24q32 16 104 64v32q-16 128 64 120q-8 88 -104 96q-40 0 -120 -48q-72 -40 -96 -40q-96 -96 -96 -144q8 -88 112 -104z" />
<glyph unicode="h" horiz-adv-x="536" d="M128 408l-16 256q8 32 0 96v48v136t-16 192q-8 48 0 88q0 24 24 16q40 -8 48 -160q8 -40 8 -48q0 -136 -8 -184q-16 -128 16 -192q8 8 24 40q96 144 144 136q24 8 72 -144q24 -96 32 -312q0 -40 -16 -40q-56 0 -56 136v8q-8 16 -24 184q-8 80 -32 80q-72 -24 -128 -168 q-8 -32 8 -152q8 -56 8 -72q-16 -48 -40 -48q-40 32 -48 104z" />
<glyph unicode="i" horiz-adv-x="344" d="M168 264q-32 8 -32 136v16q0 24 8 88v80q0 16 -8 40q-16 24 -16 56v40q8 40 32 40h8q48 -24 48 -280q0 -136 -8 -160q0 -8 -8 -16q-8 -40 -24 -40zM96 1080h8q48 0 120 -72q40 -8 48 -48l-16 -32q-136 40 -176 120q0 16 16 32z" />
<glyph unicode="j" horiz-adv-x="456" d="M56 128l48 -112q24 -32 104 -32q40 0 72 120q32 128 40 304q0 56 -8 160t-8 152q0 32 16 64q56 0 48 -96v-24q8 -160 16 -192v-8q0 -192 -16 -280q-8 -32 -24 -72q-8 -24 -16 -64q-24 -120 -136 -112q-56 0 -104 64q-24 24 -24 32t-8 16q0 16 -8 16v24v8q-8 24 8 32z M224 1040l8 24q40 -8 56 -8h24q40 -8 40 -40q0 -24 -56 -24q-32 0 -48 -8t-16 -40q-8 -24 -16 -24v24q0 24 8 96z" />
<glyph unicode="k" horiz-adv-x="632" d="M248 552l-40 -8q-8 -32 -8 -48l8 -32v-32v-80q-16 -24 -40 -32q-40 0 -48 112q0 48 8 128t8 120v120q-16 48 -24 192q-32 192 -32 312v40q8 32 8 48q64 0 56 -72v-40q0 -8 8 -64v-40l8 -8v-16q8 -64 16 -192t16 -200q8 -8 16 -8q128 112 224 104q64 0 64 -56 q0 -80 -176 -216l8 -16l80 -80q184 -184 184 -208q-8 -40 -40 -48q-8 0 -24 24l-8 8q0 8 -24 32q-16 16 -16 24q-8 8 -56 64l-56 56l-8 16l-64 64q-16 8 -48 32zM424 792h-64q-8 -16 -56 -48q-48 -24 -56 -40h-16q8 -64 40 -80q8 8 16 8l16 8q24 16 24 24q48 40 88 88 q8 16 8 40z" />
<glyph unicode="l" horiz-adv-x="504" d="M184 296l-64 128q-24 56 -24 240v40t8 64v64q8 128 88 328q16 8 24 40q0 24 24 24q48 -16 56 -32v-8q-8 0 -8 -8l-24 -24q-16 -24 -24 -32v-8q-8 -24 -8 -32q-16 -32 -56 -152q0 -24 -8 -72q8 32 -8 -16v-144v-56q8 -80 0 -128q0 -16 16 -32q0 -16 40 -96q-8 -56 64 -64 q32 0 80 40t80 40q16 0 16 -16q-40 -72 -184 -120q-64 -8 -88 32z" />
<glyph unicode="m" horiz-adv-x="976" d="M512 800l-8 8q-32 -16 -40 -24q-136 -112 -192 -440q-16 -64 -48 -64q-8 0 -24 16q-8 64 -16 96q0 8 -8 16l-24 96q-16 88 -32 136q-8 24 -40 64q-48 72 -48 96t24 16q48 0 72 -56q8 -16 48 -112q24 -56 32 -72q0 -64 24 -112q8 16 32 88q32 80 32 88q8 16 16 24 q8 16 16 40q40 48 64 88q72 88 136 88q40 0 48 -40v-80q8 -80 8 -96v-16l8 -24v-24q8 8 16 40q40 64 32 96q8 8 32 48t24 48t8 16q8 40 32 40t48 -24l24 -24l48 -104q16 -16 16 -32q24 -112 40 -136v-16q24 -120 24 -176v-16q-8 -16 -8 -24l8 -8v-8q-8 -56 -48 -64q0 8 -8 8 q0 8 -8 16l-8 16v120q-8 96 -16 128q-40 208 -104 256q-16 -8 -24 -32q-8 -16 -16 -24q0 -8 -8 -24q-56 -88 -72 -264q-8 -40 -8 -64q-8 -8 -16 -56q-8 -24 -8 -32l-8 -8q-16 -8 -24 -8q-16 0 -24 32q-8 24 -16 24q8 88 0 272q-8 120 -8 184z" />
<glyph unicode="n" horiz-adv-x="648" d="M224 376v184q-8 24 -16 72q-16 64 -32 96q-16 24 -64 64q-56 48 -72 88q8 32 32 32q32 0 48 -32q112 -88 152 -232q8 0 8 -8q24 24 32 48q24 72 88 136q32 24 40 32h56q8 -8 24 -16t16 -16q56 -120 56 -264v-176q-16 -24 -16 -48l8 -8v-32q0 -64 -48 -64q-8 0 -24 16v24 v16q-8 80 16 104q0 32 8 88v88q-16 208 -72 216q-32 0 -80 -112l-8 -8q-24 -40 -40 -80q-24 -104 -32 -184v-8q-24 -48 -48 -48q-24 8 -32 32z" />
<glyph unicode="o" horiz-adv-x="776" d="M64 480v24q-8 32 -8 40q0 40 56 120l8 8q128 128 152 144q8 8 16 24l24 24q24 8 104 8q64 0 128 -8q152 -80 184 -208q8 -32 -32 -88q-16 -24 -24 -32q-176 -224 -320 -216q-176 0 -264 112q0 8 -16 40q0 8 -8 8zM136 544q8 -144 200 -160q16 0 40 8q32 8 40 8 q120 40 232 208q8 24 8 32q0 32 -16 64q-56 112 -208 112q-32 0 -40 -8q-16 0 -16 -8t8 -24v-8q0 -16 -8 -16q-16 0 -16 24h-24q-24 0 -48 -24q-16 -8 -96 -88q-8 -24 -32 -48t-24 -72z" />
<glyph unicode="p" horiz-adv-x="744" d="M168 -136q0 32 16 40q64 112 88 248q-8 32 8 112q16 56 16 80t-16 56q-16 40 -16 56q0 24 16 72t16 72q0 112 -32 160q-96 -32 -128 -32q-24 -16 -56 -24h-8q-24 0 -24 16q8 48 24 56h24q24 8 80 24q80 24 120 32q72 16 240 16h80q88 -24 88 -88q0 -32 -32 -96 q-16 -24 -24 -40l-160 -160q-16 -16 -56 -32q-48 -16 -64 -40q-16 -32 -24 -168q-72 -384 -136 -400q-40 0 -40 40zM456 528l136 136l48 88v8q0 24 -40 24t-40 16q-16 -8 -88 -8h-8q-112 8 -112 -32t8 -128t8 -136q0 -16 8 -16q16 0 56 32z" />
<glyph unicode="q" horiz-adv-x="736" d="M360 128q0 64 16 184q8 120 8 176q-24 0 -80 -16q-56 -24 -88 -24q-152 8 -160 144q72 240 328 312q136 -16 192 -216q-8 -32 -56 -80q-32 -32 -40 -56q-48 -104 -56 -400q8 -240 56 -296q16 0 96 144t96 144q-72 -328 -184 -368q-112 8 -128 352zM408 600v48 q48 16 48 112q0 80 -88 80q-40 0 -88 -24q-24 -8 -40 -16l-112 -168q-8 -16 -8 -40q8 -80 88 -88q176 40 200 96z" />
<glyph unicode="r" horiz-adv-x="656" d="M488 768h-16q-8 0 -32 -32q-16 -24 -24 -32q-16 -24 -48 -80q-16 -24 -24 -32q-8 -32 -24 -88q0 -16 -8 -40q0 -88 -8 -96v-40q-8 -32 -8 -40v-8q-16 -56 -56 -56h-8q-24 32 -24 88v24q8 32 16 72q16 72 16 104q-8 160 -104 296l-8 8q-8 24 -24 24h-8q-8 -8 -16 -8 q-24 0 -32 64q16 0 32 8h32q96 -16 160 -208q0 -8 8 -32q0 -24 8 -32q0 8 16 16q8 8 48 64t48 64q24 16 56 48q56 48 112 72q32 -8 32 -24q0 -24 -32 -32q-16 -8 -24 -16z" />
<glyph unicode="s" horiz-adv-x="624" d="M192 400l-40 -64v-8q0 -24 88 -24h8q96 -8 216 48l16 8q24 16 24 24q0 16 -8 32q-16 16 -16 24q-40 56 -136 136l-88 88q-8 8 -32 40q-88 96 -88 120q-8 8 16 24l8 8q8 0 56 16t56 16t32 8h24q24 0 40 -8q88 -32 120 -40q24 -16 16 -32q0 -40 -32 -40q-16 0 -24 16 t-16 16q-32 32 -96 32q-104 -8 -104 -40q0 -8 16 -32q8 0 16 -8q16 -16 88 -96q224 -240 224 -288q-8 -120 -288 -128q-232 0 -232 64q24 56 120 88h16z" />
<glyph unicode="t" horiz-adv-x="704" d="M304 864l16 200q-16 40 -24 72q0 24 -8 48q0 8 -16 40q-24 64 -24 88q8 24 32 24q40 0 48 -24q24 -32 24 -104v-24q0 -32 8 -80q8 -64 8 -136q8 -16 8 -24v-64q0 -8 16 -8t32 8q120 40 144 40v16t-8 32v16q0 16 24 16q56 -48 64 -88q0 -16 -24 -32q-8 0 -56 -16t-56 -24 l-56 -16q-56 -8 -64 -16q-16 0 -16 -8q-8 -40 -8 -72v-168t-8 -168l8 -16l8 8q24 0 16 -64q0 -104 -48 -104q-72 8 -48 152v8q0 64 8 184q8 152 0 232q-16 8 -24 8q-24 0 -40 -8q-24 -8 -56 -8h-40q-32 0 -88 24q-24 16 -32 56l8 8q16 -8 24 -8q32 0 56 -8t56 -8 q56 -16 136 8v8z" />
<glyph unicode="u" horiz-adv-x="712" d="M152 808v-280q16 -32 24 -104q8 -48 16 -72q16 -16 24 -16q112 120 192 352q0 8 16 48q16 32 16 40q8 16 8 40q0 32 32 32q48 0 48 -56q0 -32 -8 -120q-16 -88 -16 -128q0 -24 24 -80q24 -40 24 -64q0 -8 -8 -16l8 -8l16 -24q8 -24 8 -32q8 0 16 40q0 32 16 32 q24 0 16 -64v-8t8 -16q8 -16 8 -48q-8 -64 -24 -64q-48 0 -120 144q-24 64 -32 120q-8 80 -24 128h-8q-8 -24 -32 -72q-88 -192 -168 -248h-16q-80 0 -112 200q-8 56 -16 72q0 120 8 176q0 40 -8 120t-8 120q0 16 16 24q0 -8 8 0l48 -24q8 -8 16 -8v-32q0 -48 -16 -104z" />
<glyph unicode="v" horiz-adv-x="792" d="M472 512l192 312q8 8 8 32v24q-8 16 -8 24q8 24 32 24q48 8 40 -64q-32 -96 -144 -264l-80 -136q-16 -16 -32 -64q-8 -32 -16 -40t-16 -48q-24 -112 -64 -112q-16 0 -24 32l-8 16v24q-24 312 -184 472q-8 0 -16 8q-24 16 -32 16l-16 16q-48 40 -48 72q0 16 48 16 q120 -56 208 -232q16 -16 40 -88q8 -32 16 -40q8 -48 32 -96q16 8 32 48q24 40 40 48z" />
<glyph unicode="w" horiz-adv-x="808" d="M264 384l72 192v248q8 0 24 8h24q16 0 32 -8l8 -24v-24v-192q48 -128 96 -136q48 8 72 40q96 104 96 240q0 32 -32 72q-24 40 -24 64q8 32 32 32q72 -8 96 -176q-48 -312 -240 -344q-48 0 -112 88q-24 40 -32 40l-8 -16q-16 -32 -16 -40t-8 -24q-8 -40 -24 -48l-56 -136 q-24 -48 -56 -56q-40 0 -48 104q-8 24 -8 32q-8 48 -16 160q-8 160 -24 240q0 16 -24 64q-24 64 -24 88q16 40 32 48q16 0 16 -8t16 -32q8 -40 16 -48q0 -24 16 -24v-32q8 -48 8 -56q16 -64 24 -184l24 -192v-8q-8 -8 8 -16l8 8q16 48 32 56z" />
<glyph unicode="x" horiz-adv-x="776" d="M496 592l-120 -120l-32 -32q-32 -24 -40 -32q-8 0 -80 -72l-16 -16q-48 -56 -80 -56q-40 0 -40 32q40 64 136 160q8 0 8 -8l8 -8q48 48 80 56l144 168l8 16q-48 72 -72 104q-40 64 -96 72q-64 0 -120 -40q-40 -40 -48 -56l-8 -8q-8 -16 -24 -16q-32 16 -48 56q0 8 8 8v8 q8 8 24 16q120 96 200 96q48 0 104 -32q32 -32 80 -112q16 -24 24 -32l8 -8q24 0 32 16q8 32 48 80q8 8 16 24q56 112 104 112q32 0 32 -40q0 -32 -40 -72l-24 -24q-56 -56 -120 -152v-8q-8 -8 -8 -16q80 -184 80 -392q-8 -32 -40 -40q-40 0 -40 48q-16 32 -24 88 q24 48 24 72q-8 120 -40 160h-8z" />
<glyph unicode="y" horiz-adv-x="600" d="M440 624l-8 16q-24 -8 -56 -48q-64 -72 -112 -72q-96 0 -160 168q0 8 -8 32t-16 32v56q-8 40 -8 48t8 24h48q8 0 8 -8l8 -24v-32v-48q56 -176 120 -184q48 0 144 128q8 8 8 48v56q-8 32 -8 48q0 40 40 40q40 -8 56 -80v-16q0 -336 -8 -488q-48 -408 -200 -424 q-80 -8 -80 64q8 0 16 -8q16 -8 32 -8q88 16 144 192q32 160 32 408v80z" />
<glyph unicode="z" horiz-adv-x="720" d="M512 720l-240 40h-16h-32q-16 -8 -32 -8q-24 16 -32 40q48 32 104 32q144 -16 168 -32q216 -8 224 -64q0 -16 -8 -24l-16 -16q-64 -48 -112 -80q-8 -8 -104 -64q-264 -168 -264 -192t80 -24h8q168 0 248 8q16 0 40 8q48 16 80 16q72 -16 56 -32l-40 -40q-56 8 -192 -8 q-88 -8 -136 -8h-112q-8 0 -32 8q-104 24 -104 80q0 8 56 48t64 48q16 8 88 56q168 112 200 128q56 48 72 56l8 8q0 16 -24 16z" />
<glyph unicode="{" horiz-adv-x="568" d="M264 1040l88 -152v-24q0 -80 -48 -144q0 -8 -8 -16q-16 -24 -16 -32q0 -16 8 -24l16 -16q72 -104 72 -432v-32v-128q-8 -8 -8 -24v-16q8 -16 8 -32q-8 -80 -40 -80q-24 0 -32 8q0 8 -8 32q0 72 16 128v80v24q8 360 -64 432h-24t-32 -8q-8 -8 -16 -8q-32 8 -40 48 q0 8 32 40q120 112 120 192q0 48 -48 112q-40 48 -48 80q-16 64 -16 168q0 80 8 136q16 8 64 64l8 8q40 56 160 48h64q8 0 8 -16q-8 -48 -80 -64q0 16 8 24q8 0 16 8h-32q-56 0 -96 -40l-16 -8q-40 -48 -48 -80v-80v-24q-8 -16 -8 -24q8 -72 32 -128z" />
<glyph unicode="|" horiz-adv-x="536" d="M248 1056v168q16 40 48 56q8 0 16 -16t16 -16q0 -16 -8 -56q-8 -32 -8 -40q0 -152 -16 -448q0 24 0 -40q0 -24 -8 -80q0 -72 -8 -112v-176l8 -16v-40v-48q-8 -32 -8 -48q0 -24 8 -56q-16 -32 -48 -48q-8 0 -24 8q-16 32 -16 72q0 152 32 456q24 304 24 456q0 8 -8 24z " />
<glyph unicode="}" horiz-adv-x="640" d="M352 232v296q0 16 -8 16q0 104 24 192q16 16 16 24q0 16 -48 40q-88 48 -88 120q0 64 48 168t48 160q-16 128 -144 144q-16 8 -64 0h-8q-16 0 -16 24q8 40 40 48q96 0 168 -48q80 -80 96 -160q0 -56 -48 -168q-48 -104 -48 -168q0 -32 16 -56q16 0 40 -16q16 -8 24 -8 t24 -8q104 -8 104 -48q16 16 -48 -48q-32 8 -56 -72v-8v-216v-112q-8 -240 8 -344q8 -24 8 -40q-8 -72 -88 -88q-144 40 -160 72l8 16h64h24q48 8 72 -8q8 8 8 16v48q8 152 -16 232z" />
<glyph unicode="~" horiz-adv-x="1016" d="M64 624l24 16l248 112q24 0 56 16q32 8 48 8q48 8 144 -64q112 -96 184 -80q16 0 56 16q64 24 96 24q24 0 24 -24q-16 -56 -168 -88q-88 8 -152 40q-136 112 -184 112h-24q-16 -8 -24 -8q-16 -8 -56 -16q-8 0 -48 -24q-48 -16 -56 -24q-8 0 -56 -24q-48 -32 -72 -32 q-16 0 -16 8q-8 8 -24 32z" />
<glyph unicode="&#xa4;" d="M584 48q0 16 32 56q24 24 24 32l16 24q32 48 40 48q0 8 24 32q40 0 40 -8v-16q-48 -144 -160 -184q-16 0 -16 16zM1024 1072h160q24 8 40 8t56 -16q32 -8 40 -8q24 8 80 104q0 8 16 32q8 40 16 48q8 24 24 16q40 0 40 -32q0 -40 -72 -128q-48 -56 -48 -80 q88 -72 120 -248q-8 -32 0 -96q8 -40 8 -56q8 -144 -128 -264v-16q-8 0 -32 -24q32 0 32 -8q88 -80 112 -200v-40q-8 -8 -24 -8q-32 0 -40 56q0 24 -8 32q-16 24 -80 96l-8 16q-16 24 -24 32q-120 -64 -264 -64q-312 0 -416 280q-8 24 -16 64q-8 48 -16 64q16 96 64 176 q72 128 168 184q40 16 144 64q24 16 56 16zM720 432l120 -112q64 -16 88 -24q40 -8 120 -8q320 8 384 296q0 8 8 48v48q8 152 -56 248q-8 24 -16 24t-16 -16q-16 -16 -24 -16t-80 64q-8 0 -16 8q-48 16 -72 16q-16 0 -16 -24q0 -16 -8 -16q-24 0 -48 48h-24 q-344 -64 -400 -392v-48q8 -40 32 -96q0 -16 16 -24q8 0 8 -24zM552 1208q0 8 -8 16q0 32 24 32q112 -64 208 -232q0 -16 -32 -16h-8q-8 8 -32 24l-48 48t-40 56q-40 48 -64 72z" />
<glyph unicode="&#xa7;" d="M736 208q0 -24 -32 -40t-32 -32q0 -48 48 -56q24 -8 40 -16q88 -24 144 -24q200 32 384 160q80 72 88 136q0 40 -72 40q-336 40 -552 160q-40 48 -56 152q0 96 120 168q24 16 80 64v8q-40 40 -64 56q-24 8 -24 16q-16 24 -24 72q0 96 40 144t240 64q216 -48 248 -152 q0 -32 -56 -40q-8 -8 -16 -8q0 8 -8 8q0 8 16 32q-8 32 -40 56q-56 32 -104 48h-128q-8 -8 -24 0h-24q-80 -32 -80 -136q0 -72 128 -136q16 -8 24 -16l8 -16l24 -24q96 -72 192 -136q24 -16 16 -40q0 -40 -32 -64q-40 -40 -112 -64q-24 -8 -32 -16l-8 8q-16 -16 -64 -24 q-8 0 -72 8h-72q8 -32 264 -104q24 -8 104 -16q240 -16 232 -128q0 -16 -24 -40q-16 -8 -16 -16q-40 -96 -200 -168q-48 -16 -72 -32t-32 -16q-32 -16 -40 -16q-16 0 -56 -16q-72 -16 -104 -16q-16 0 -48 8q-56 8 -88 0q-8 8 -56 24q-48 24 -56 24q-48 8 -56 40q-8 16 72 96 q8 0 24 16l24 16q16 -8 16 -16zM824 560v-8h8v8h-8zM808 648q0 -40 112 -40q224 32 248 104q-32 56 -216 152q-8 0 -24 -8q-8 0 -48 -24q-48 -16 -56 -24q-64 -64 -64 -104q0 -8 8 -16q24 24 40 16q24 0 16 -24q0 -8 -8 -16q-8 0 -8 -16zM1168 1056v-16q-16 0 -16 8t16 8z M1208 1072v-8q-8 8 0 8z" />
<glyph unicode="&#xa8;" d="M752 1304q-40 40 -40 48q0 32 24 32q80 -16 136 -80q0 -16 -8 -16h-24q-48 0 -88 16zM1312 1352h-48q-32 8 -40 56q0 32 40 32q56 -16 72 -56q-8 -24 -24 -32z" />
<glyph unicode="&#xad;" horiz-adv-x="920" d="M144 696h48q16 -32 104 -32h32l392 64q0 8 32 8t80 -8q8 -8 8 -24q0 -8 -32 -40q-80 0 -168 -8q-48 -8 -160 -24l-16 -8l-32 -8q-88 -16 -112 -16q-40 -8 -56 -8q-8 0 -40 8h-24q-72 16 -72 64q0 32 16 32z" />
<glyph unicode="&#xb0;" d="M216 1240q24 144 72 160h8t40 -8q16 -8 96 0h24q80 -8 160 -120q0 -56 -136 -144q-72 -56 -128 -48q-128 8 -136 160zM280 1240q8 -96 88 -104q120 48 176 128q-8 48 -88 64q-8 0 -32 -8t-40 -8t-24 16q0 8 -8 16q-64 -32 -72 -104z" />
<glyph unicode="&#xb1;" d="M552 216v56h320q32 8 88 8q56 8 80 8q16 0 24 8q56 16 176 8h56q200 -8 200 -72q-16 -40 -40 -40q0 8 -8 16q-8 0 -24 16q-40 16 -128 24h-40q-96 0 -296 -24q-192 -24 -296 -24h-88q-24 8 -24 16zM1040 696l-8 8h-208q-16 0 -24 -32q-8 -24 -16 -24q0 8 -8 8 q-16 32 -16 40q-8 8 -24 8q-24 8 -24 32q0 32 40 40q24 0 72 -8t72 -8q64 0 128 16v8q0 56 -24 152q-32 104 -32 152q0 40 24 40q72 0 80 -176v-48t16 -72l8 -40v-8q-8 -16 16 -24h64q48 -8 56 -8q32 0 48 48v16h8q32 -8 40 -64q0 -40 -48 -56h-48q-16 0 -56 8h-56 q0 -8 -8 -24v-128v-32q-8 -32 -8 -40q-24 -88 -48 -104q-16 0 -24 24q0 32 8 88t8 80v64t-8 64z" />
<glyph unicode="&#xb7;" d="M920 704q16 168 112 168q64 -16 96 -160q-8 -88 -136 -104q-80 8 -72 96z" />
<glyph unicode="&#xd7;" d="M936 680l-96 80l-8 16l-80 72q-72 24 -72 72v8q-8 16 8 16h32h24l16 -8q96 -96 96 -104l128 -120q16 0 24 -8h8l224 256q8 8 16 24q24 64 56 64q56 -8 64 -40q8 -16 -16 -40q-24 -16 -32 -24q-8 0 -16 -16t-16 -24l-24 -16t-32 -24l-24 -24q-8 -16 -24 -32q-8 -8 -64 -72 q-56 -56 -64 -72q16 -24 32 -40q96 -96 112 -120q8 -24 64 -64q72 -48 72 -72t-32 -24q-24 0 -40 16l-160 152q-40 64 -96 88q-48 -16 -176 -152l-8 -16q-56 -56 -72 -64q-8 -24 -48 -24q-24 8 -32 32q0 8 8 16l16 16q56 40 56 48l56 56t72 64t72 64l8 16q0 8 -16 16 q-8 8 -16 8z" />
<glyph unicode="&#xe0;" d="M1168 560q-40 -24 -64 -80l-120 -120q-48 -40 -104 -40q-48 0 -80 48q-8 24 -16 32q-56 56 -64 104v112q0 64 32 128q56 104 328 120q40 0 80 -40l24 -24q8 0 24 -8q32 -24 32 -80v-176q8 -16 8 -48q16 -88 56 -112q16 -16 24 -112q0 -56 -32 -56q-40 0 -96 240 q-24 112 -32 112zM936 400l112 112v32l96 112q8 8 8 40q8 128 -120 120q-120 -8 -192 -72q-8 0 -24 -24l-24 -24v-32q-8 -24 -8 -32v-96q24 -160 104 -160q24 0 48 24zM896 1256q-8 48 32 40q40 0 224 -200q0 -24 -8 -48l-8 -8q-8 -24 -32 -24h-8q0 8 -8 32l-16 24t-120 120 l-56 48v16z" />
<glyph unicode="&#xe1;" d="M1168 1336h24q32 0 32 -24q-136 -200 -264 -320q-16 0 -16 8q8 8 16 32q120 208 208 304zM1168 560q-40 -24 -64 -80l-120 -120q-48 -40 -104 -40q-48 0 -80 48q-8 24 -16 32q-56 56 -64 104v112q0 64 32 128q56 104 328 120q40 0 80 -40l24 -24q8 0 24 -8q32 -24 32 -80 v-176q8 -16 8 -48q16 -88 56 -112q16 -16 24 -112q0 -56 -32 -56q-40 0 -96 240q-24 112 -32 112zM936 400l112 112v32l96 112q8 8 8 40q8 128 -120 120q-120 -8 -192 -72q-8 0 -24 -24l-24 -24v-32q-8 -24 -8 -32v-96q24 -160 104 -160q24 0 48 24z" />
<glyph unicode="&#xe8;" d="M712 512q0 8 16 16q24 8 24 24v8l-8 8q32 256 304 288q80 0 168 -96l24 -24t16 -24q24 -16 24 -40q0 -40 -72 -72q-24 -16 -40 -24q-24 -24 -32 -24q-80 -40 -88 -48q-48 -24 -88 -24l-24 -8q-16 -8 -24 -8q0 -8 16 -24q112 -48 184 -48q80 0 136 24q32 32 56 32 q8 0 32 -16q-8 -80 -216 -96q-88 0 -144 24q-48 16 -96 48q-64 40 -120 48q-48 16 -48 56zM808 592q8 -48 24 -72h32q136 0 320 128q16 8 24 24q8 8 -16 24l-8 8q0 8 -16 40q-16 24 -24 32h-8q-48 24 -96 24q-208 -32 -232 -208zM896 1256q-8 48 32 40q40 0 224 -200 q0 -24 -8 -48l-8 -8q-8 -24 -32 -24h-8q0 8 -8 32l-16 24t-120 120l-56 48v16z" />
<glyph unicode="&#xe9;" d="M712 512q0 8 16 16q24 8 24 24v8l-8 8q32 256 304 288q80 0 168 -96l24 -24t16 -24q24 -16 24 -40q0 -40 -72 -72q-24 -16 -40 -24q-24 -24 -32 -24q-80 -40 -88 -48q-48 -24 -88 -24l-24 -8q-16 -8 -24 -8q0 -8 16 -24q112 -48 184 -48q80 0 136 24q32 32 56 32 q8 0 32 -16q-8 -80 -216 -96q-88 0 -144 24q-48 16 -96 48q-64 40 -120 48q-48 16 -48 56zM808 592q8 -48 24 -72h32q136 0 320 128q16 8 24 24q8 8 -16 24l-8 8q0 8 -16 40q-16 24 -24 32h-8q-48 24 -96 24q-208 -32 -232 -208zM1168 1336h24q32 0 32 -24 q-136 -200 -264 -320q-16 0 -16 8q8 8 16 32q120 208 208 304z" />
<glyph unicode="&#xea;" d="M712 512q0 8 16 16q24 8 24 24v8l-8 8q32 256 304 288q80 0 168 -96l24 -24t16 -24q24 -16 24 -40q0 -40 -72 -72q-24 -16 -40 -24q-24 -24 -32 -24q-80 -40 -88 -48q-48 -24 -88 -24l-24 -8q-16 -8 -24 -8q0 -8 16 -24q112 -48 184 -48q80 0 136 24q32 32 56 32 q8 0 32 -16q-8 -80 -216 -96q-88 0 -144 24q-48 16 -96 48q-64 40 -120 48q-48 16 -48 56zM808 592q8 -48 24 -72h32q136 0 320 128q16 8 24 24q8 8 -16 24l-8 8q0 8 -16 40q-16 24 -24 32h-8q-48 24 -96 24q-208 -32 -232 -208zM752 1048l184 200q8 16 32 48q32 48 48 80 q8 8 16 24q8 32 32 32q32 -8 40 -24l56 -144q8 0 8 -8q8 -16 24 -40q32 -56 48 -80l24 -24q32 -40 32 -56q-8 -48 -40 -56q-16 0 -32 8q-16 48 -56 112q-24 32 -32 48q-16 40 -48 112q8 -16 -16 32h-8t-112 -128q-152 -184 -176 -184t-24 48z" />
<glyph unicode="&#xec;" d="M1016 264q-24 8 -24 104q-8 32 -8 48q8 48 8 168q0 16 -8 40q-16 24 -16 56q0 24 8 40q0 40 24 40h16q40 -8 40 -280q0 -136 -8 -160q-8 -48 -32 -56zM896 1256q-8 48 32 40q40 0 224 -200q0 -24 -8 -48l-8 -8q-8 -24 -32 -24h-8q0 8 -8 32l-16 24t-120 120l-56 48v16z " />
<glyph unicode="&#xed;" d="M1016 264q-24 8 -24 104q-8 32 -8 48q8 48 8 168q0 16 -8 40q-16 24 -16 56q0 24 8 40q0 40 24 40h16q40 -8 40 -280q0 -136 -8 -160q-8 -48 -32 -56zM1168 1336h24q32 0 32 -24q-136 -200 -264 -320q-16 0 -16 8q8 8 16 32q120 208 208 304z" />
<glyph unicode="&#xf2;" d="M696 480v24q-8 32 -8 40q0 64 64 128l32 32q96 104 112 112l16 16l32 32q24 8 104 8q88 0 120 -8q152 -72 192 -208q8 -24 -32 -80q-16 -24 -24 -40q-176 -224 -328 -216q-168 0 -256 112q0 8 -16 40q0 8 -8 8zM760 544q16 -144 200 -160q16 0 48 8t40 8q120 48 232 208 q8 24 8 32q0 16 -16 48q-8 8 -8 16q-56 112 -208 112q-16 0 -32 -8q-24 0 -24 -8t8 -24v-8q8 -16 -8 -16t-16 24h-16q-24 0 -48 -24q-64 -48 -96 -88q-8 -24 -32 -48q-32 -24 -32 -72zM896 1256q-8 48 32 40q40 0 224 -200q0 -24 -8 -48l-8 -8q-8 -24 -32 -24h-8q0 8 -8 32 l-16 24t-120 120l-56 48v16z" />
<glyph unicode="&#xf3;" d="M696 480v24q-8 32 -8 40q0 64 64 128l32 32q96 104 112 112l16 16l32 32q24 8 104 8q88 0 120 -8q152 -72 192 -208q8 -24 -32 -80q-16 -24 -24 -40q-176 -224 -328 -216q-168 0 -256 112q0 8 -16 40q0 8 -8 8zM760 544q16 -144 200 -160q16 0 48 8t40 8q120 48 232 208 q8 24 8 32q0 16 -16 48q-8 8 -8 16q-56 112 -208 112q-16 0 -32 -8q-24 0 -24 -8t8 -24v-8q8 -16 -8 -16t-16 24h-16q-24 0 -48 -24q-64 -48 -96 -88q-8 -24 -32 -48q-32 -24 -32 -72zM1168 1336h24q32 0 32 -24q-136 -200 -264 -320q-16 0 -16 8q8 8 16 32q120 208 208 304 z" />
<glyph unicode="&#xf7;" d="M960 376q0 32 32 32q72 -16 80 -40v-32q8 -16 40 -56q40 -56 40 -88t-32 -32q-40 0 -56 56q-8 24 -16 40t-40 48q-48 32 -48 72zM480 608q-8 0 -16 32q0 32 40 32q96 0 168 -24h88q128 0 368 32q248 32 368 32q88 0 88 -40q0 -8 -16 -32q-8 0 -16 -8q-96 24 -192 16 q-192 -8 -232 -32q-16 0 -104 -8t-104 -8h-16t-24 -8h-160q-24 -8 -32 -8q-112 0 -208 24zM792 1008v8t8 16l8 8q48 0 96 -40q32 -24 56 -32l72 -24q72 -16 104 -32q-8 -24 -32 -32q-192 8 -312 128z" />
<glyph unicode="&#xf9;" d="M816 808v-280q16 -32 24 -104q0 -48 8 -72q16 -16 24 -16q104 96 192 352q8 8 24 48q16 32 16 40v32q0 40 40 40q48 0 40 -56q0 -32 -8 -120t-8 -128q0 -24 24 -80q16 -40 16 -64q0 -8 -8 -16l8 -8q8 0 16 -24q16 -24 16 -32q8 0 8 32q0 40 16 40q32 0 24 -64v-8t8 -32 q8 -16 8 -32q-8 -64 -32 -64q-56 16 -112 144q0 8 -16 64q-16 48 -24 56q8 8 -8 72q-8 48 -8 56h-8q-8 -24 -32 -72q-88 -192 -168 -248h-24q-80 0 -104 192q-8 64 -16 80q-16 96 8 176q0 40 -8 120t-8 120q0 16 16 24q16 0 40 -16q24 -8 32 -16v-32q0 -48 -16 -104z M896 1256q-8 48 32 40q40 0 224 -200q0 -24 -8 -48l-8 -8q-8 -24 -32 -24h-8q0 8 -8 32l-16 24t-120 120l-56 48v16z" />
<glyph unicode="&#xfa;" d="M816 808v-280q16 -32 24 -104q0 -48 8 -72q16 -16 24 -16q104 96 192 352q8 8 24 48q16 32 16 40v32q0 40 40 40q48 0 40 -56q0 -32 -8 -120t-8 -128q0 -24 24 -80q16 -40 16 -64q0 -8 -8 -16l8 -8q8 0 16 -24q16 -24 16 -32q8 0 8 32q0 40 16 40q32 0 24 -64v-8t8 -32 q8 -16 8 -32q-8 -64 -32 -64q-56 16 -112 144q0 8 -16 64q-16 48 -24 56q8 8 -8 72q-8 48 -8 56h-8q-8 -24 -32 -72q-88 -192 -168 -248h-24q-80 0 -104 192q-8 64 -16 80q-16 96 8 176q0 40 -8 120t-8 120q0 16 16 24q16 0 40 -16q24 -8 32 -16v-32q0 -48 -16 -104z M1168 1336h24q32 0 32 -24q-136 -200 -264 -320q-16 0 -16 8q8 8 16 32q120 208 208 304z" />
<glyph unicode="&#xfc;" d="M816 808v-280q16 -32 24 -104q0 -48 8 -72q16 -16 24 -16q104 96 192 352q8 8 24 48q16 32 16 40v32q0 40 40 40q48 0 40 -56q0 -32 -8 -120t-8 -128q0 -24 24 -80q16 -40 16 -64q0 -8 -8 -16l8 -8q8 0 16 -24q16 -24 16 -32q8 0 8 32q0 40 16 40q32 0 24 -64v-8t8 -32 q8 -16 8 -32q-8 -64 -32 -64q-56 16 -112 144q0 8 -16 64q-16 48 -24 56q8 8 -8 72q-8 48 -8 56h-8q-8 -24 -32 -72q-88 -192 -168 -248h-24q-80 0 -104 192q-8 64 -16 80q-16 96 8 176q0 40 -8 120t-8 120q0 16 16 24q16 0 40 -16q24 -8 32 -16v-32q0 -48 -16 -104z M816 1048q-40 40 -40 48q0 32 24 32q88 -24 136 -80q0 -16 -8 -16h-24q-48 0 -88 16zM1184 1016h-48q-24 8 -40 56q0 32 40 32q64 -8 72 -56q-8 -24 -24 -32z" />
<glyph unicode="&#x2000;" horiz-adv-x="808" vert-adv-y="0" />
<glyph unicode="&#x2001;" horiz-adv-x="1616" vert-adv-y="0" />
<glyph unicode="&#x2002;" horiz-adv-x="808" vert-adv-y="0" />
<glyph unicode="&#x2003;" horiz-adv-x="1616" vert-adv-y="0" />
<glyph unicode="&#x2004;" horiz-adv-x="538" vert-adv-y="0" />
<glyph unicode="&#x2005;" horiz-adv-x="404" vert-adv-y="0" />
<glyph unicode="&#x2006;" horiz-adv-x="269" vert-adv-y="0" />
<glyph unicode="&#x2007;" horiz-adv-x="269" vert-adv-y="0" />
<glyph unicode="&#x2008;" horiz-adv-x="202" vert-adv-y="0" />
<glyph unicode="&#x2009;" horiz-adv-x="323" vert-adv-y="0" />
<glyph unicode="&#x200a;" horiz-adv-x="89" vert-adv-y="0" />
<glyph unicode="&#x2010;" horiz-adv-x="920" d="M144 696h48q16 -32 104 -32h32l392 64q0 8 32 8t80 -8q8 -8 8 -24q0 -8 -32 -40q-80 0 -168 -8q-48 -8 -160 -24l-16 -8l-32 -8q-88 -16 -112 -16q-40 -8 -56 -8q-8 0 -40 8h-24q-72 16 -72 64q0 32 16 32z" />
<glyph unicode="&#x2011;" horiz-adv-x="920" d="M144 696h48q16 -32 104 -32h32l392 64q0 8 32 8t80 -8q8 -8 8 -24q0 -8 -32 -40q-80 0 -168 -8q-48 -8 -160 -24l-16 -8l-32 -8q-88 -16 -112 -16q-40 -8 -56 -8q-8 0 -40 8h-24q-72 16 -72 64q0 32 16 32z" />
<glyph unicode="&#x2012;" horiz-adv-x="920" d="M144 696h48q16 -32 104 -32h32l392 64q0 8 32 8t80 -8q8 -8 8 -24q0 -8 -32 -40q-80 0 -168 -8q-48 -8 -160 -24l-16 -8l-32 -8q-88 -16 -112 -16q-40 -8 -56 -8q-8 0 -40 8h-24q-72 16 -72 64q0 32 16 32z" />
<glyph unicode="&#x2013;" horiz-adv-x="1232" d="M151 696h69q23 -32 150 -32h46l563 64q0 8 46 8t115 -8q12 -8 12 -24q0 -8 -46 -40q-115 0 -242 -8q-69 -8 -230 -24l-23 -8l-46 -8q-126 -16 -161 -16q-57 -8 -80 -8q-12 0 -58 8h-34q-104 16 -104 64q0 32 23 32z" />
<glyph unicode="&#x2014;" d="M1672 696q-72 0 -216 -16q-136 -8 -200 -8h-8q-24 8 -96 16l-32 -8t-40 -8h-88q-408 0 -848 80h-32q-112 8 -104 64q0 32 48 32q40 0 104 -24q56 -16 88 -16q160 -16 648 -64h184q112 0 328 8q288 16 432 8q8 8 8 16q16 24 40 24q152 -16 160 -64q0 -72 -56 -72 q-16 0 -48 16q-16 8 -24 8q-48 16 -208 8h-40z" />
<glyph unicode="&#x2018;" d="M1608 1464l-112 -208l-8 -40l8 -8q136 16 144 -56q8 -56 -88 -128q-24 -16 -48 -16q-64 0 -96 96q0 16 8 56q8 72 16 104q88 176 112 208q8 8 48 72q16 32 24 40l16 8q16 24 24 24q40 -8 40 -24q0 -24 -8 -40q-24 -8 -48 -48q-16 -32 -32 -40z" />
<glyph unicode="&#x2019;" d="M408 1072q0 32 72 120q72 96 72 136q-16 48 -48 56q-8 0 -24 -8q-16 -16 -32 -16q-32 8 -40 56q0 88 80 88h16t16 -8q104 -88 104 -168v-40q-16 -8 -24 -32t-16 -32l-24 -32t-32 -40q-8 0 -32 -32q-56 -56 -72 -56z" />
<glyph unicode="&#x201c;" d="M1248 1056q0 16 -32 48q-32 48 -32 72v16l16 16q0 8 8 40v40q8 32 64 96l32 32q40 96 120 160h8q32 0 40 -40l-8 -8q-32 -40 -72 -72q-16 -24 -48 -80q-16 -24 -24 -40q0 -8 -24 -24q-32 -32 -32 -48q0 -32 16 -24q16 0 48 8q40 16 64 16q48 0 96 -56l32 -32l8 -16v-24 q0 -56 -56 -112q-8 -16 -16 -24q-16 0 -16 -8q-16 16 -40 16h-80q-40 24 -72 48zM1800 1544l-8 -8l8 -16v-8l-8 -8q-112 -128 -120 -208v-16l48 24q16 8 24 8t40 8h16l56 -48q8 0 8 -32q-40 -144 -176 -184q-96 0 -96 160v56q8 16 16 40l8 24q96 224 144 240q40 -8 40 -24 v-8z" />
<glyph unicode="&#x201d;" d="M336 1152h-8q40 40 48 120v24q0 -8 -24 -8h-8q-72 40 -112 112q0 16 32 56q8 16 16 24q8 0 32 8l24 8q32 8 80 -40q40 -32 40 -136q0 -96 -56 -184l-24 -24q-48 -40 -72 -40t-24 16t40 48zM720 1352v16q-8 -8 -8 -16q-16 -16 -40 -16q-56 8 -64 120q0 8 8 32l8 32 q24 24 40 16q112 -32 144 -144q-88 -216 -176 -256q-8 0 -8 24q0 16 32 64q24 40 32 56q0 8 32 72z" />
<glyph unicode="&#x2026;" d="M504 712q-24 24 -32 56q0 32 24 32q32 0 80 -40q24 -40 48 -40h24t16 -24q0 -8 -8 -16q-16 -16 -16 -24h-16q-8 8 -24 8zM1136 696l-40 -32h-8q0 -8 -8 -8q-16 0 -16 8q-8 0 -16 8q-96 56 -96 112q8 0 24 8l8 8q24 0 72 -48q16 -24 24 -24t24 -8q32 -8 32 -16v-8z M1416 776q0 32 32 32q24 0 48 -32q32 -48 72 -48q8 -64 -72 -56q-64 16 -80 104z" />
<glyph unicode="&#x202f;" horiz-adv-x="323" vert-adv-y="0" />
<glyph unicode="&#x205f;" horiz-adv-x="404" vert-adv-y="0" />
<glyph unicode="&#x20ac;" horiz-adv-x="912" d="M24 752h48q16 -24 64 -24h8q112 248 432 272q200 -16 208 -80q0 -40 -56 -40q-8 0 -8 16l-8 8q-48 48 -144 40q-88 0 -216 -64q-104 -88 -136 -152l352 64h32q48 0 80 -8q8 -8 8 -24l-16 -16q-8 -16 -16 -24q-72 0 -160 -8q-48 -8 -152 -24h-16q-24 -8 -136 -32 q-8 -48 -8 -128l320 64h32q40 0 72 -8v-24q0 -8 -8 -16q-16 -16 -16 -24q-48 8 -144 -8q-40 0 -136 -16l-8 -8q-8 -8 -88 -24q72 -128 232 -128h40t32 8q104 24 288 136q-8 40 48 40q40 0 40 -32q0 -16 -8 -24q-16 -16 -16 -24q-96 -40 -200 -104q-16 -8 -40 -16 q-104 -40 -160 -48q-240 8 -320 184h-24h-48h-8q-48 24 -48 64t8 40h40q8 -32 64 -32q-8 48 -8 72v56h-48q-64 24 -64 64q0 32 16 32z" />
<glyph unicode="&#x25fc;" horiz-adv-x="960" vert-adv-y="1920" d="M0 960h960v-960h-960v960z" />
</font>
</defs>
</svg>
